<?xml version="1.0" encoding="UTF-8"?>
<svg id="_圖層_2" data-name="圖層 2" xmlns="http://www.w3.org/2000/svg" width="293.45" height="547.29" viewBox="0 0 293.45 547.29">
  <g id="_圖層_1-2" data-name="圖層 1">
    <g>
      <polygon points="244.96 63.64 246.65 547.29 248.48 547.29 246.79 62.93 246.79 62.22 7.27 0 0 0 244.96 63.64" style="fill: #fff;"/>
      <polygon points="248.71 60.29 250.4 543.94 252.23 543.94 250.54 59.58 250.54 58.88 23.91 0 16.63 0 248.71 60.29" style="fill: #fff;"/>
      <polygon points="252.46 56.94 254.15 540.6 255.98 540.59 254.28 56.23 254.28 55.53 40.54 0 33.27 0 252.46 56.94" style="fill: #fff;"/>
      <polygon points="256.21 53.59 257.89 537.25 259.72 537.24 258.03 52.88 258.03 52.18 57.18 0 49.9 0 256.21 53.59" style="fill: #fff;"/>
      <polygon points="259.95 50.25 261.64 533.9 263.47 533.89 261.78 49.54 261.78 48.83 73.81 0 66.54 0 259.95 50.25" style="fill: #fff;"/>
      <polygon points="263.7 46.9 265.39 530.55 267.22 530.55 265.53 46.19 265.52 45.48 90.45 0 83.17 0 263.7 46.9" style="fill: #fff;"/>
      <polygon points="267.45 43.55 269.14 527.2 270.96 527.2 269.27 42.84 269.27 42.13 107.08 0 99.81 0 267.45 43.55" style="fill: #fff;"/>
      <polygon points="271.19 40.2 272.88 523.86 274.71 523.85 273.02 39.49 273.02 38.79 123.72 0 116.44 0 271.19 40.2" style="fill: #fff;"/>
      <polygon points="274.94 36.85 276.63 520.51 278.46 520.5 276.77 36.14 276.76 35.44 140.35 0 133.08 0 274.94 36.85" style="fill: #fff;"/>
      <polygon points="278.69 33.51 280.38 517.16 282.2 517.15 280.51 32.79 280.51 32.09 156.99 0 149.71 0 278.69 33.51" style="fill: #fff;"/>
      <polygon points="282.44 30.16 284.12 513.81 285.95 513.81 284.26 29.45 284.26 28.74 173.62 0 166.35 0 282.44 30.16" style="fill: #fff;"/>
      <polygon points="286.18 26.81 287.87 510.46 289.7 510.46 288.01 26.1 288.01 25.39 190.25 0 182.98 0 286.18 26.81" style="fill: #fff;"/>
      <polygon points="289.93 23.46 291.62 507.12 293.45 507.11 291.76 22.75 291.75 22.05 206.89 0 199.62 0 289.93 23.46" style="fill: #fff;"/>
    </g>
  </g>
</svg>