<?xml version="1.0" encoding="UTF-8"?>
<svg id="_圖層_2" data-name="圖層 2" xmlns="http://www.w3.org/2000/svg" width="54.98" height="165.62" viewBox="0 0 54.98 165.62">
  <g id="_圖層_6" data-name="圖層 6">
    <g>
      <g>
        <line x1="27.68" y1="124.84" x2="27.68" style="fill: none; stroke: #fff; stroke-miterlimit: 10; stroke-width: .79px;"/>
        <rect x="-14.73" y="29.63" width="62.02" height="1.8" transform="translate(50.87 31.7) rotate(120)" style="fill: #fff;"/>
        <line x1="25.41" y1="7.33" x2="54.64" y2="55.84" style="fill: none; stroke: #fff; stroke-miterlimit: 10; stroke-width: .79px;"/>
      </g>
      <g>
        <path d="M18.69,152.98v12.39h-2.73v-12.39h-4.41v-2.27h11.55v2.27h-4.41Z" style="fill: #fff;"/>
        <path d="M29.92,165.62c-.95,0-1.78-.17-2.48-.51-.7-.34-1.28-.84-1.73-1.48s-.79-1.44-1.01-2.37-.33-2.01-.33-3.21,.11-2.26,.33-3.2,.55-1.74,1.01-2.38,1.03-1.14,1.73-1.48c.7-.34,1.53-.52,2.48-.52,1.9,0,3.3,.67,4.2,2,.9,1.33,1.34,3.19,1.34,5.59s-.45,4.26-1.34,5.59c-.9,1.33-2.3,1.99-4.2,1.99Zm0-2.22c.49,0,.9-.1,1.24-.29s.61-.46,.81-.81c.2-.35,.35-.78,.44-1.29,.09-.51,.14-1.09,.14-1.72v-2.51c0-1.26-.19-2.26-.58-2.99-.38-.73-1.07-1.1-2.05-1.1s-1.66,.37-2.05,1.1c-.39,.73-.58,1.73-.58,2.99v2.53c0,1.27,.19,2.26,.58,2.99,.38,.73,1.07,1.1,2.05,1.1Z" style="fill: #fff;"/>
        <path d="M37.91,165.37v-14.66h5.56c1.43,0,2.52,.41,3.28,1.22,.76,.81,1.13,1.91,1.13,3.31s-.38,2.5-1.13,3.31c-.76,.81-1.85,1.21-3.28,1.21h-2.81v5.61h-2.75Zm2.75-7.83h2.25c.74,0,1.27-.15,1.6-.45,.32-.3,.48-.79,.48-1.45v-.8c0-.66-.16-1.14-.48-1.45-.32-.3-.85-.45-1.6-.45h-2.25v4.6Z" style="fill: #fff;"/>
      </g>
    </g>
  </g>
</svg>