<?xml version="1.0" encoding="UTF-8"?>
<svg id="_圖層_2" data-name="圖層 2" xmlns="http://www.w3.org/2000/svg" width="336.9" height="66.15" viewBox="0 0 336.9 66.15">
  <g id="_圖層_6" data-name="圖層 6">
    <g>
      <g>
        <polygon points="42.55 0 0 0 0 66.04 13.04 57.59 13.04 8.24 42.14 8.24 42.14 9.9 18.18 11.8 18.18 54.35 42.14 56.24 42.14 57.91 17.85 57.91 10.49 66.15 11.32 66.15 42.55 66.15 51.77 66.15 51.77 0 42.55 0" style="fill: #fff;"/>
        <polygon points="42.14 57.91 42.14 56.24 18.18 54.35 18.18 11.8 42.14 9.9 42.14 8.24 13.04 8.24 13.04 57.59 0 66.04 0 66.15 10.49 66.15 17.85 57.91 42.14 57.91" style="fill: #115992;"/>
      </g>
      <g>
        <g>
          <path d="M98.44,32.22c-.81,.31-1.67,.61-2.57,.89-1.79,.54-3.52,.81-5.19,.81-4.62,0-8.41-1.39-11.36-4.17-2.98-2.75-4.47-6.32-4.47-10.72s1.49-7.77,4.47-10.64c3.01-2.84,6.75-4.25,11.23-4.25,1.5,0,3.15,.21,4.94,.64,1.79,.45,3.39,1.05,4.81,1.79v2.51c-1.36-.79-2.95-1.47-4.77-2.04-1.7-.54-3.49-.81-5.36-.81-3.69,0-6.75,1.22-9.19,3.66-2.47,2.44-3.7,5.49-3.7,9.15s1.2,6.85,3.62,9.23c2.41,2.38,5.54,3.57,9.4,3.57,2.07,0,3.98-.31,5.74-.94,.91-.31,1.74-.65,2.49-1,.75-.35,1.45-.72,2.11-1.08v2.34c-.65,.4-1.38,.75-2.19,1.06Z" style="fill: #fff;"/>
          <path d="M129.13,33.54v-13.74h-19.31v13.74h-2.26V4.52h2.26v13.4h19.31V4.52h2.26v29.02h-2.26Z" style="fill: #fff;"/>
          <path d="M141.18,33.54V4.52h15.87v1.87h-13.61v11.61h13.23v1.83l-13.23,.04v11.78h13.91v1.87h-16.17Z" style="fill: #fff;"/>
          <path d="M165.04,33.54V4.52h15.87v1.87h-13.61v11.61h13.23v1.83l-13.23,.04v11.78h13.91v1.87h-16.17Z" style="fill: #fff;"/>
          <path d="M208.23,33.54l-5.11-7.96c-.51-.82-1.01-1.59-1.51-2.3-.5-.71-1-1.35-1.51-1.92-1.02-1.16-2.52-1.74-4.51-1.74h-4.42v13.91h-2.26V4.52h7.32c3.09,0,5.49,.64,7.19,1.92,1.7,1.33,2.55,3.22,2.55,5.66,0,1.87-.55,3.38-1.66,4.51-1.13,1.19-2.41,2.01-3.83,2.47,.76,.48,1.59,1.32,2.47,2.51,.45,.62,.88,1.23,1.28,1.83,.4,.6,.79,1.19,1.19,1.79l5.45,8.34h-2.64Zm-6.64-25.65c-1.33-.99-3.13-1.49-5.4-1.49h-5.02v11.36h4.81c2.41,0,4.27-.48,5.57-1.45,1.33-.99,2-2.41,2-4.25s-.65-3.2-1.96-4.17Z" style="fill: #fff;"/>
          <path d="M219.54,33.54V4.52h2.21v29.02h-2.21Z" style="fill: #fff;"/>
          <path d="M255.83,33.54l-22.04-25.36v25.36h-2.25V4.52h1.91c1.84,2.21,3.67,4.37,5.49,6.47,1.81,2.1,3.66,4.18,5.53,6.25,1.87,2.07,3.72,4.16,5.53,6.25,1.82,2.1,3.64,4.25,5.49,6.47V4.52h2.26v29.02h-1.91Z" style="fill: #fff;"/>
          <path d="M288.42,33.2c-1.84,.48-3.72,.72-5.62,.72-4.57,0-8.32-1.42-11.27-4.25-3.01-2.84-4.51-6.41-4.51-10.72s1.46-7.74,4.38-10.55c2.92-2.84,6.58-4.25,10.98-4.25,2.21,0,4.25,.3,6.13,.89,1.9,.6,3.25,1.12,4.04,1.57v2.55c-1.59-.94-3.22-1.64-4.89-2.13-1.7-.54-3.46-.81-5.28-.81-3.66,0-6.74,1.21-9.23,3.62-2.47,2.44-3.7,5.49-3.7,9.15,0,3.89,1.25,6.99,3.74,9.32,2.52,2.35,5.83,3.53,9.91,3.53,1.64,0,3.15-.18,4.51-.55,1.42-.4,2.49-.81,3.23-1.23v-7.83h-6.13v-1.87h8.34v11.1c-1.33,.68-2.88,1.26-4.64,1.74Z" style="fill: #fff;"/>
        </g>
        <g>
          <polygon points="319.49 5.49 319.53 5.44 319.29 4.5 305.85 4.5 305.85 6.32 316.25 6.32 305.32 19.62 305.28 19.67 305.55 20.52 319.56 20.52 319.56 18.7 308.56 18.7 319.49 5.49" style="fill: #fff;"/>
          <path d="M334.9,4.5V13.42c0,.84-.11,1.59-.34,2.24-.22,.64-.55,1.22-.96,1.7-.84,.96-2,1.45-3.44,1.45s-2.65-.47-3.51-1.4c-.85-.94-1.28-2.24-1.28-3.87V4.5h-2V13.62c0,2.09,.63,3.81,1.88,5.12,1.27,1.31,2.91,1.98,4.88,1.98s3.65-.7,4.88-2.07c1.25-1.34,1.88-3.07,1.88-5.14V4.5h-2Z" style="fill: #fff;"/>
        </g>
        <g>
          <g>
            <rect x="77.44" y="55.04" width="4.58" height=".6" style="fill: #fff;"/>
            <rect x="77.44" y="52.76" width="4.58" height=".6" style="fill: #fff;"/>
            <path d="M77.36,61.89h4.75s0-4.58,0-4.58h-4.75v4.58Zm4.15-3.97v3.37h-3.54v-3.37h3.54Z" style="fill: #fff;"/>
            <g>
              <path d="M91.69,49.16l.11,.1,.38-.47-.1-.09c-.79-.67-1.52-1.21-2.22-1.66l-.11-.07-.34,.5,.12,.08c.8,.51,1.53,1.05,2.18,1.61Z" style="fill: #fff;"/>
              <path d="M92.07,57.92c-.11,1.25-.25,2.23-.36,2.69-.04,.21-.1,.39-.17,.53-.07,.16-.11,.21-.11,.21,0,0-.01,.01-.02,.01-.04-.03-.13-.11-.29-.35-.33-.49-.9-1.84-1.34-3.48,.93-1.44,1.65-3.31,2.16-5.55l.03-.14-.59-.12-.03,.13c-.45,1.96-1.04,3.54-1.78,4.84-.42-1.89-.69-4.08-.81-6.51h3.68v-.6h-3.71c-.01-.43-.03-1.08-.03-1.98v-.14h-.61v.14c0,.39,0,.89,.02,1.5v.48s-4.5,0-4.5,0v3.88c0,3.56-.37,6.31-1.1,8.18l-.05,.13,.56,.22,.05-.13c.77-2.01,1.15-4.84,1.15-8.4v-.59h2.81v.71c0,2.15,0,4.01-.3,4.39-.04,.05-.17,.14-.6,.14-.33,0-.97-.06-1.76-.16l-.14-.02-.06,.61,.14,.02c.84,.11,1.49,.17,1.83,.17h.21c.55,0,.98-.08,1.16-1.04,.1-.56,.15-2.29,.15-5.29v-.14h-3.42v-2.08h3.93c.12,2.73,.44,5.17,.96,7.25-1.05,1.57-2.5,2.86-4.45,3.97l-.12,.07,.31,.52,.12-.07c1.87-1.05,3.3-2.27,4.36-3.72,.42,1.45,.97,2.73,1.44,3.3,.25,.33,.45,.47,.64,.47,.22,0,.41-.11,.54-.3,.14-.18,.27-.58,.41-1.2,.14-.64,.25-1.49,.33-2.53v-.14s-.6-.03-.6-.03v.13Z" style="fill: #fff;"/>
            </g>
            <rect x="77.36" y="48.28" width="4.75" height=".61" style="fill: #fff;"/>
            <rect x="76.88" y="50.47" width="5.56" height=".61" style="fill: #fff;"/>
          </g>
          <g>
            <path d="M110.51,48.4h-11.02v3.62h11.02v-3.62Zm-10.41,3v-2.39h9.8v2.39h-9.8Z" style="fill: #fff;"/>
            <path d="M111.86,58.69c-.13,1.86-.21,2.31-1.5,2.56-.58,.11-2.17,.16-4.87,.16-1.06,0-1.89,0-2.54-.02-1.29-.02-2.63-.15-3.03-.23-.21-.05-.35-.12-.44-.24-.2-.21-.2-.28-.19-.68v-2.79s12.04,.02,12.04,.02v-4.68h-12.65v7.29c0,.89,.36,1.44,1.08,1.65,.65,.18,2.74,.27,5.73,.27,3.32,0,5.17-.14,5.8-.43,.66-.29,1.04-1.22,1.16-2.86v-.14s-.59-.03-.59-.03v.14Zm-1.16-5.29v3.45h-5.16v-3.45h5.16Zm-5.78,0v3.45h-5.65v-3.45h5.65Z" style="fill: #fff;"/>
          </g>
          <g>
            <g>
              <path d="M133.16,53.73c-.01,.8-.02,1.24-.11,1.63v.05c-.1,.41-.12,.45-.29,.53-.19,.09-.26,.1-.52,.1h-.23q-.67,0-.67-.52v-4.44h-1.38c-.2-.63-.4-1.19-.59-1.68h3.92v-.6h-5.67c.33-.42,.58-.81,.76-1.19l.06-.12-.53-.28-.06,.13c-.63,1.27-1.75,2.43-3.32,3.46l-.12,.08,.34,.5,.12-.08c.87-.59,1.61-1.21,2.24-1.9h1.62c.19,.48,.39,1.05,.6,1.68h-3.78v1.27c0,2.09-.5,3.13-1.89,3.98l-.12,.07,.31,.53,.12-.08c1.6-1.01,2.19-2.23,2.19-4.5v-.67h4.59v3.84c0,.99,.26,1.12,1.29,1.12,.34,0,.57-.02,.75-.07,.31-.08,.69-.25,.83-.85,.12-.52,.17-1.1,.19-2.22v-.14s-.61,0-.61,0v.37Z" style="fill: #fff;"/>
              <path d="M129.66,55.32l.09,.1,.47-.38-.1-.11c-.83-.93-1.73-1.77-2.66-2.49l-.11-.09-.37,.49,.11,.08c.96,.73,1.83,1.53,2.57,2.39Z" style="fill: #fff;"/>
              <path d="M118.38,51.45c.72-.61,1.35-1.29,1.86-2.04h1.32c.21,.55,.45,1.22,.75,2.08h-3.94v.61h2.69v3.41c-.85,.26-1.8,.5-2.84,.71l-.14,.03,.12,.59,.14-.03c2.54-.52,4.64-1.19,6.24-1.99l.12-.06-.25-.54-.13,.07c-.7,.36-1.6,.71-2.65,1.03v-3.22h2.92v-.61h-1.63c-.25-.73-.5-1.43-.74-2.08h3.27v-.6h-4.85c.26-.43,.46-.83,.61-1.22l.05-.13-.58-.21-.05,.13c-.51,1.27-1.52,2.63-2.68,3.61l-.11,.09,.4,.46,.11-.09Z" style="fill: #fff;"/>
            </g>
            <path d="M126.75,57.63h6.3v-.61h-6.91v-1.46h-.61v1.46h-6.91v.61h6.3c-1.5,1.15-3.64,2.24-6.35,3.23l-.13,.05,.22,.56,.13-.05c2.93-1.08,5.2-2.25,6.75-3.5v4.09h.61v-4.09c1.55,1.25,3.82,2.43,6.75,3.5l.13,.05,.22-.56-.13-.05c-2.72-.99-4.85-2.08-6.35-3.23Z" style="fill: #fff;"/>
          </g>
          <g>
            <path d="M141.49,58.34c.7-1.33,1.24-2.87,1.5-4.64v-.46h-3.24c1.15-1.37,2.12-2.84,2.89-4.36l.02-.52h-3.93v.6h3.2c-.77,1.48-1.76,2.9-3.01,4.33l-.03,.04v.51h3.48c-.24,1.4-.65,2.72-1.24,3.92-.42-.7-.85-1.64-1.32-2.87l-.05-.13-.56,.22,.05,.13c.54,1.43,1.07,2.52,1.56,3.26-.62,1.14-1.42,2.17-2.39,3.08l-.1,.1,.42,.46,.1-.1c.91-.88,1.7-1.88,2.34-2.98,1.57,2.02,3.59,2.74,7.6,2.74h4.53v-.61h-4.53c-4.03,0-5.88-.69-7.29-2.71Z" style="fill: #fff;"/>
            <path d="M152.49,48.54h-4.14v-1.15h-.61v1.15h-4.45v.6h4.45v1.68h-5.43v.6h5.43v1.84h-4.3v.6h4.3v1.76h-4.62v.61h4.62v1.91h-5.26v.6h5.26v1.96h.61v-1.96h4.8v-.6h-4.8v-1.91h4.47v-.61h-4.47v-1.76h4.14v-2.44h1.15v-.6h-1.15v-2.27Zm-.6,2.87v1.84h-3.54v-1.84h3.54Zm-3.54-.6v-1.68h3.54v1.68h-3.54Z" style="fill: #fff;"/>
          </g>
          <g>
            <path d="M193.73,50.93c-.02,.19-.03,.35-.04,.49-.01,.16-.02,.29-.03,.37-.03,.32-.21,.79-.24,.84-.06,.06-.43,.21-.65,.21h-.82c-.07,0-.2,0-.21,0,0-.02,0-.11,0-.18v-4.62h-5v1.37c0,2.12-.61,3.26-2.11,3.96l-.13,.06,.25,.54,.13-.06c1.72-.81,2.45-2.15,2.45-4.49v-.76h3.79v4.01c0,.68,.28,.79,.95,.79,.51,0,.88-.02,1.09-.05,.51-.06,.93-.51,1.02-1.09,.05-.27,.1-.71,.15-1.33v-.14s-.6-.06-.6-.06v.14Z" style="fill: #fff;"/>
            <path d="M190.08,58.93c1.26-1.09,2.3-2.5,3.11-4.18v-.52s-8.4,0-8.4,0v.6h7.68c-.76,1.48-1.72,2.73-2.88,3.71-1.24-1-2.26-2.11-3.03-3.28l-.08-.12-.5,.34,.08,.11c.79,1.21,1.79,2.3,3.05,3.34-1.18,.9-2.68,1.68-4.44,2.31l-.14,.05,.22,.56,.13-.05c1.87-.67,3.46-1.5,4.72-2.48,1.22,.95,2.59,1.76,4.16,2.47l.13,.06,.25-.55-.13-.06c-1.45-.66-2.77-1.44-3.92-2.32Z" style="fill: #fff;"/>
            <path d="M179.43,54.21c0,3.54-.31,5.63-1.12,7.45l-.06,.13,.56,.22,.05-.12c.61-1.41,.98-3.18,1.1-5.26h3.11v3.59c0,.79-.06,.92-.07,.93,0,0-.07,.07-.44,.07-.24,0-.71-.03-1.42-.06l-.49-.03-.03,.61,.39,.02c.78,.04,1.29,.07,1.55,.07,1.02,0,1.12-.31,1.12-1.62v-12.17h-4.26v6.17Zm.6-2.35v-3.21h3.06v3.21h-3.06Zm3.06,.61v3.54h-3.08c.01-.38,.03-.98,.03-1.8v-1.74h3.06Z" style="fill: #fff;"/>
          </g>
          <g>
            <path d="M209.86,47.99l-.04-.09h-3.44v.61h3.04c.67,1.58,1.56,3.06,2.65,4.43h-8.05v.61h2.66c-.31,3.63-1.85,6.06-4.86,7.64l-.12,.06,.28,.53,.12-.07c3.23-1.7,4.88-4.3,5.19-8.17h4.21c0,2.14-.08,3.79-.23,4.9-.18,1.35-.41,1.86-.57,2.05-.22,.26-.56,.4-1.02,.4-.72,0-1.54-.03-2.67-.08h-.14s-.03,.6-.03,.6h.14c1.11,.06,1.96,.09,2.7,.09,1.38,0,1.92-.73,2.2-3.01,.15-1.12,.22-2.84,.22-5.26v-.26c.35,.43,.71,.86,1.1,1.27l.09,.1,.46-.4-.1-.11c-1.66-1.76-2.95-3.74-3.81-5.87Z" style="fill: #fff;"/>
            <path d="M202.39,53.96l.44,.41,.1-.1c1.44-1.54,2.53-3.35,3.23-5.38l.04-.13-.56-.22-.05,.14c-.67,1.93-1.72,3.67-3.11,5.18l-.09,.1Z" style="fill: #fff;"/>
            <path d="M202.71,47.49l-.59-.15-.04,.14c-.8,3.15-2.15,5.9-4.01,8.18l-.09,.11,.46,.4,.09-.11c.7-.87,1.31-1.76,1.82-2.66v8.62h.6v-9.75c.05-.09,.14-.27,.15-.33,.65-1.35,1.17-2.8,1.55-4.31l.03-.13Z" style="fill: #fff;"/>
          </g>
          <path d="M224.55,47.63l.04-.13-.56-.18-.04,.13c-.23,.7-.42,1.25-.58,1.66h-4.73v.61h4.48c-1.08,2.55-2.52,4.42-4.77,6.21l-.11,.09,.38,.47,.11-.09c1.25-.99,2.29-2.03,3.09-3.11v8.72h.61v-3.25h8.82v2.12c0,.31-.06,.38-.06,.38,0,0-.13,.06-.92,.06-.46,0-1.15-.03-2.27-.08h-.14s-.03,.61-.03,.61h.14c1.1,.06,1.82,.09,2.3,.09,1.21,0,1.6-.08,1.6-1.05v-8.84h-9.22c.44-.77,.83-1.54,1.14-2.31h9.46v-.61h-9.22c.15-.4,.31-.87,.49-1.48Zm-2.09,7.42v-2.41h8.82v2.41h-8.82Zm8.82,.6v2.49h-8.82v-2.49h8.82Z" style="fill: #fff;"/>
          <g>
            <path d="M280.6,48.23v.61h12.85v11.57q0,.99-1.01,.99c-.11,0-.45-.01-1.02-.03l-1.54-.05-.03,.61,1.52,.05c.61,.02,.96,.03,1.07,.03,1.36,0,1.6-.24,1.6-1.6v-12.18h-13.45Z" style="fill: #fff;"/>
            <path d="M290.64,53.76h-8.25v5.97h8.25s0-5.97,0-5.97Zm-.61,.61v4.75h-7.03v-4.75h7.03Z" style="fill: #fff;"/>
            <rect x="281.41" y="51" width="10.36" height=".6" style="fill: #fff;"/>
          </g>
          <g>
            <path d="M169.9,59.04c1.11-1.06,2.04-2.46,2.77-4.15v-.51s-7.59,0-7.59,0v.6h6.9c-.66,1.47-1.5,2.68-2.54,3.67-1.05-.96-1.92-2.02-2.65-3.23l-.07-.12-.52,.31,.07,.12c.76,1.27,1.67,2.39,2.71,3.33-1.05,.91-2.37,1.68-4.02,2.34l-.13,.05,.22,.56,.13-.05c1.72-.69,3.11-1.5,4.26-2.5,1.12,.95,2.36,1.77,3.79,2.5l.13,.07,.25-.55-.12-.06c-1.38-.7-2.55-1.47-3.59-2.35Z" style="fill: #fff;"/>
            <path d="M173.22,51.07c-.02,.19-.03,.35-.04,.49-.01,.16-.02,.29-.03,.37-.03,.32-.21,.79-.24,.84-.06,.06-.43,.21-.65,.21h-.82c-.07,0-.2,0-.21,0,0-.02,0-.11,0-.18v-4.62h-4.35v1.37c0,2.12-.61,3.26-2.11,3.96l-.13,.06,.25,.54,.13-.06c1.72-.81,2.45-2.15,2.45-4.49v-.76h3.14v4.01c0,.68,.28,.79,.95,.79,.51,0,.88-.02,1.09-.05,.51-.06,.93-.51,1.02-1.09,.05-.27,.1-.71,.15-1.33v-.14s-.6-.06-.6-.06v.14Z" style="fill: #fff;"/>
            <g>
              <rect x="159.2" y="55.02" width="4.58" height=".6" style="fill: #fff;"/>
              <rect x="159.2" y="52.75" width="4.58" height=".6" style="fill: #fff;"/>
              <path d="M159.12,61.87h4.75s0-4.58,0-4.58h-4.75v4.58Zm4.15-3.97v3.37h-3.54v-3.37h3.54Z" style="fill: #fff;"/>
              <rect x="159.12" y="48.26" width="4.75" height=".61" style="fill: #fff;"/>
              <rect x="158.63" y="50.46" width="5.56" height=".61" style="fill: #fff;"/>
            </g>
          </g>
          <g>
            <path d="M244.44,56.59c0-1.4-.37-2.31-1.56-3.84,.82-1.32,1.51-2.71,2.05-4.16v-.52s-4.99,0-4.99,0v13.94h.6v-13.33h3.71c-.55,1.39-1.24,2.74-2.05,4.02l-.05,.08,.06,.08c1.28,1.58,1.63,2.38,1.63,3.73,0,1.05-.38,1.4-1.49,1.4h-.94v.61h.94c1.45,0,2.1-.62,2.1-2.02Z" style="fill: #fff;"/>
            <path d="M255.08,61.36c-1.31-.65-2.48-1.61-3.48-2.85,1.23-.95,2.34-2.08,3.3-3.36l.08-.11-.47-.38-.09,.12c-.94,1.28-2.02,2.37-3.19,3.26-.67-.94-1.19-1.96-1.56-3.01h4.36v-6.87h-8.25v13.47c1.53-.28,3.1-.64,4.71-1.08l.14-.04-.18-.58-.13,.04c-1.26,.36-2.55,.67-3.92,.94v-5.88h2.65c1,3.04,3.15,5.61,5.77,6.89l.12,.06,.28-.55-.13-.06Zm-8.69-12.6h7.04v2.39h-7.04v-2.39Zm0,5.65v-2.64h7.04v2.64h-7.04Z" style="fill: #fff;"/>
          </g>
          <g>
            <g>
              <path d="M265.52,47.96l.06-.12-.53-.28-.06,.13c-1.16,2.25-2.88,4.25-5.12,5.93l-.12,.09,.37,.47,.11-.08c2.33-1.76,4.11-3.82,5.29-6.12Z" style="fill: #fff;"/>
              <path d="M270.06,47.68l-.07-.13-.53,.28,.06,.12c1.18,2.3,2.95,4.36,5.29,6.12l.11,.08,.38-.47-.12-.09c-2.23-1.68-3.95-3.67-5.12-5.93Z" style="fill: #fff;"/>
            </g>
            <path d="M274.74,61.62c-1.04-2.18-2.25-4.32-3.6-6.36l-.08-.12-.5,.34,.08,.12c.75,1.14,1.53,2.45,2.39,4.01-3.19,.26-6.79,.38-9.68,.36,1.2-2.33,2.54-4.72,3.59-7.59l.05-.13-.57-.2-.05,.13c-.98,2.86-4.09,8.39-4.09,8.39,3.39,.07,7.57-.06,11.06-.36,.18,.33,.46,.88,.86,1.7l.06,.13,.54-.26-.06-.13Z" style="fill: #fff;"/>
          </g>
        </g>
      </g>
    </g>
  </g>
</svg>