<?xml version="1.0" encoding="UTF-8"?>
<svg id="_圖層_2" data-name="圖層 2" xmlns="http://www.w3.org/2000/svg" width="172.16" height="38.69" viewBox="0 0 172.16 38.69">
  <g id="_圖層_1-2" data-name="圖層 1">
    <g>
      <polygon points="24.89 0 0 0 0 38.63 7.63 33.68 7.63 4.82 24.64 4.82 24.64 5.79 10.63 6.9 10.63 31.79 24.64 32.89 24.64 33.87 10.44 33.87 6.14 38.69 6.62 38.69 24.89 38.69 30.28 38.69 30.28 0 24.89 0" style="fill: #fff;"/>
      <g>
        <g>
          <g>
            <rect x="44.46" y="10.82" width="5.56" height=".72" style="fill: #fff;"/>
            <rect x="44.46" y="8.06" width="5.56" height=".72" style="fill: #fff;"/>
            <path d="M44.36,19.13h5.76s0-5.55,0-5.55h-5.76v5.55Zm5.04-4.81v4.09h-4.29v-4.09h4.29Z" style="fill: #fff;"/>
            <g>
              <path d="M61.75,3.68l.13,.12,.46-.57-.13-.11c-.96-.81-1.84-1.47-2.7-2.01l-.14-.09-.41,.6,.15,.1c.96,.62,1.85,1.28,2.64,1.96Z" style="fill: #fff;"/>
              <path d="M62.21,14.31c-.14,1.51-.3,2.7-.44,3.26-.05,.25-.12,.47-.21,.65-.09,.19-.13,.25-.13,.25-.01,0-.02,.01-.03,.02-.04-.03-.15-.13-.35-.42-.4-.6-1.09-2.23-1.63-4.22,1.12-1.75,2-4.01,2.62-6.74l.04-.17-.71-.15-.04,.16c-.55,2.37-1.26,4.3-2.16,5.87-.51-2.3-.84-4.95-.98-7.89h4.46v-.72h-4.5c-.02-.52-.03-1.32-.03-2.41v-.17h-.74v.17c0,.47,.01,1.08,.03,1.82v.58s-5.46,0-5.46,0v4.7c0,4.32-.45,7.66-1.34,9.92l-.06,.16,.68,.26,.06-.16c.93-2.44,1.4-5.87,1.4-10.19v-.72h3.4v.87c0,2.61,.01,4.86-.37,5.32-.05,.07-.21,.17-.73,.17-.4,0-1.17-.07-2.13-.2l-.17-.02-.08,.74,.16,.02c1.02,.13,1.81,.2,2.22,.2h.25c.66,0,1.19-.09,1.4-1.27,.12-.68,.18-2.78,.18-6.41v-.17h-4.15v-2.52h4.76c.14,3.31,.54,6.27,1.17,8.8-1.27,1.9-3.03,3.47-5.4,4.82l-.15,.09,.37,.63,.14-.08c2.27-1.27,4-2.75,5.29-4.51,.51,1.76,1.18,3.31,1.74,4,.31,.4,.54,.57,.78,.57,.26,0,.49-.13,.66-.37,.17-.21,.33-.7,.49-1.46,.17-.77,.31-1.8,.41-3.06v-.17s-.73-.04-.73-.04l-.02,.16Z" style="fill: #fff;"/>
            </g>
            <rect x="44.36" y="2.62" width="5.76" height=".74" style="fill: #fff;"/>
            <rect x="43.78" y="5.28" width="6.75" height=".74" style="fill: #fff;"/>
          </g>
          <g>
            <path d="M87.27,2.76h-13.37V7.14h13.37V2.76Zm-12.63,3.64V3.5h11.88v2.9h-11.88Z" style="fill: #fff;"/>
            <path d="M88.9,15.24c-.16,2.26-.26,2.81-1.82,3.11-.7,.13-2.64,.2-5.91,.2-1.28,0-2.29,0-3.08-.02-1.56-.02-3.19-.18-3.67-.28-.25-.06-.43-.15-.54-.29-.24-.26-.24-.34-.24-.82v-3.38s14.6,.02,14.6,.02v-5.67h-15.34v8.85c0,1.08,.44,1.75,1.31,2,.79,.22,3.32,.33,6.96,.33,4.03,0,6.27-.16,7.03-.52,.8-.35,1.26-1.48,1.41-3.47v-.17s-.71-.04-.71-.04v.17Zm-1.4-6.42v4.19h-6.26v-4.19h6.26Zm-7.01,0v4.19h-6.85v-4.19h6.85Z" style="fill: #fff;"/>
          </g>
          <g>
            <g>
              <path d="M117.43,9.23c-.02,.97-.03,1.5-.13,1.98v.06c-.12,.49-.14,.55-.35,.65-.22,.11-.32,.12-.63,.12h-.28q-.82,0-.82-.64V6.02h-1.68c-.25-.76-.49-1.45-.72-2.04h4.75v-.72h-6.88c.4-.51,.7-.99,.93-1.45l.07-.15-.64-.34-.08,.16c-.77,1.54-2.13,2.95-4.03,4.2l-.15,.1,.42,.6,.14-.09c1.06-.71,1.95-1.47,2.72-2.31h1.96c.23,.58,.48,1.27,.73,2.04h-4.59v1.54c0,2.53-.6,3.8-2.29,4.83l-.14,.09,.38,.64,.15-.09c1.94-1.23,2.66-2.71,2.66-5.46v-.82h5.56v4.66c0,1.2,.31,1.36,1.56,1.36,.41,0,.69-.03,.91-.09,.38-.09,.84-.3,1.01-1.03,.15-.63,.21-1.34,.23-2.69v-.17s-.74,0-.74,0v.45Z" style="fill: #fff;"/>
              <path d="M113.19,11.15l.11,.12,.57-.46-.12-.13c-1.01-1.13-2.09-2.15-3.22-3.02l-.14-.11-.45,.6,.13,.1c1.17,.89,2.22,1.86,3.12,2.89Z" style="fill: #fff;"/>
              <path d="M99.51,6.46c.87-.74,1.63-1.57,2.26-2.48h1.61c.26,.67,.55,1.48,.91,2.52h-4.78v.74h3.26v4.13c-1.03,.31-2.18,.6-3.45,.87l-.17,.04,.15,.71,.17-.03c3.08-.64,5.62-1.45,7.57-2.41l.15-.07-.31-.65-.16,.08c-.85,.44-1.93,.86-3.22,1.25v-3.91h3.54v-.74h-1.98c-.3-.88-.6-1.73-.9-2.52h3.97v-.72h-5.88c.31-.52,.56-1,.74-1.48l.06-.16-.7-.26-.06,.15c-.62,1.55-1.84,3.18-3.25,4.38l-.13,.11,.48,.56,.13-.11Z" style="fill: #fff;"/>
            </g>
            <path d="M109.65,13.95h7.64v-.74h-8.38v-1.77h-.74v1.77h-8.38v.74h7.64c-1.82,1.4-4.41,2.72-7.71,3.92l-.16,.06,.26,.68,.16-.06c3.55-1.31,6.31-2.73,8.19-4.25v4.96h.74v-4.96c1.88,1.51,4.63,2.94,8.19,4.25l.16,.06,.27-.68-.16-.06c-3.3-1.2-5.88-2.52-7.71-3.92Z" style="fill: #fff;"/>
          </g>
          <g>
            <path d="M130.22,14.82c.85-1.61,1.5-3.49,1.82-5.63v-.55h-3.93c1.39-1.66,2.57-3.44,3.51-5.29l.02-.63h-4.77v.72h3.88c-.94,1.8-2.13,3.52-3.65,5.25l-.04,.05v.62h4.22c-.29,1.7-.79,3.29-1.51,4.76-.5-.85-1.03-1.99-1.6-3.48l-.06-.16-.68,.26,.06,.16c.66,1.73,1.29,3.06,1.89,3.96-.75,1.38-1.73,2.64-2.9,3.73l-.12,.12,.52,.55,.12-.12c1.11-1.07,2.06-2.29,2.84-3.62,1.9,2.45,4.35,3.32,9.22,3.32h5.49v-.74h-5.49c-4.89,0-7.14-.83-8.84-3.28Z" style="fill: #fff;"/>
            <path d="M143.56,2.93h-5.02V1.54h-.74v1.39h-5.4v.72h5.4v2.04h-6.59v.72h6.59v2.24h-5.22v.72h5.22v2.14h-5.6v.74h5.6v2.32h-6.39v.72h6.39v2.38h.74v-2.38h5.82v-.72h-5.82v-2.32h5.42v-.74h-5.42v-2.14h5.02v-2.96h1.39v-.72h-1.39V2.93Zm-.72,3.48v2.24h-4.29v-2.24h4.29Zm-4.29-.72V3.65h4.29v2.04h-4.29Z" style="fill: #fff;"/>
          </g>
          <g>
            <path d="M167.38,15.67c1.34-1.29,2.47-2.98,3.37-5.04v-.62s-9.21,0-9.21,0v.72h8.37c-.8,1.79-1.82,3.25-3.08,4.45-1.27-1.16-2.33-2.44-3.21-3.92l-.09-.14-.63,.37,.09,.15c.92,1.54,2.03,2.9,3.29,4.04-1.28,1.11-2.87,2.04-4.88,2.84l-.16,.06,.26,.68,.16-.06c2.08-.83,3.78-1.82,5.17-3.03,1.35,1.16,2.86,2.15,4.59,3.03l.16,.08,.3-.67-.14-.07c-1.67-.85-3.1-1.79-4.35-2.86Z" style="fill: #fff;"/>
            <path d="M171.4,6c-.02,.23-.03,.43-.04,.59-.01,.2-.02,.35-.04,.45-.04,.38-.25,.96-.29,1.02-.07,.07-.53,.25-.79,.25h-.99c-.09,0-.24,0-.26,0-.01-.03-.01-.13-.01-.22V2.5h-5.27v1.66c0,2.57-.74,3.96-2.56,4.8l-.16,.07,.31,.65,.15-.07c2.09-.98,2.98-2.61,2.98-5.45v-.92h3.81v4.86c0,.82,.34,.96,1.16,.96,.61,0,1.06-.02,1.33-.06,.62-.07,1.12-.62,1.24-1.33,.06-.33,.12-.86,.18-1.61v-.17s-.73-.07-.73-.07v.17Z" style="fill: #fff;"/>
            <g>
              <rect x="154.39" y="10.79" width="5.56" height=".72" style="fill: #fff;"/>
              <rect x="154.39" y="8.03" width="5.56" height=".72" style="fill: #fff;"/>
              <path d="M154.29,19.1h5.76s0-5.55,0-5.55h-5.76v5.55Zm5.04-4.81v4.09h-4.29v-4.09h4.29Z" style="fill: #fff;"/>
              <rect x="154.29" y="2.6" width="5.76" height=".74" style="fill: #fff;"/>
              <rect x="153.71" y="5.26" width="6.75" height=".74" style="fill: #fff;"/>
            </g>
          </g>
        </g>
        <g>
          <path d="M52.72,37.13c-.25,.1-.53,.19-.81,.28-.56,.17-1.11,.25-1.63,.25-1.46,0-2.65-.44-3.58-1.31-.94-.87-1.41-1.99-1.41-3.38s.47-2.45,1.41-3.35c.95-.89,2.13-1.34,3.54-1.34,.47,0,.99,.07,1.55,.2,.56,.14,1.07,.33,1.51,.56v.79c-.43-.25-.93-.46-1.5-.64-.54-.17-1.1-.25-1.69-.25-1.16,0-2.13,.38-2.89,1.15-.78,.77-1.17,1.73-1.17,2.88s.38,2.16,1.14,2.91c.76,.75,1.75,1.13,2.96,1.13,.65,0,1.25-.1,1.81-.3,.29-.1,.55-.2,.78-.31,.24-.11,.46-.23,.66-.34v.74c-.21,.13-.44,.24-.69,.33Z" style="fill: #fff;"/>
          <path d="M65.59,37.54v-4.33h-6.08v4.33h-.71v-9.14h.71v4.22h6.08v-4.22h.71v9.14h-.71Z" style="fill: #fff;"/>
          <path d="M72.58,37.54v-9.14h5v.59h-4.29v3.66h4.17v.58h-4.17v3.72h4.38v.59h-5.09Z" style="fill: #fff;"/>
          <path d="M83.3,37.54v-9.14h5v.59h-4.29v3.66h4.17v.58h-4.17v3.72h4.38v.59h-5.09Z" style="fill: #fff;"/>
          <path d="M100.1,37.54l-1.61-2.51c-.16-.26-.32-.5-.48-.72-.16-.22-.31-.42-.48-.6-.32-.37-.8-.55-1.42-.55h-1.39v4.38h-.71v-9.14h2.3c.97,0,1.73,.2,2.26,.6,.54,.42,.8,1.01,.8,1.78,0,.59-.17,1.06-.52,1.42-.36,.38-.76,.63-1.21,.78,.24,.15,.5,.42,.78,.79,.14,.2,.28,.39,.4,.58,.13,.19,.25,.38,.38,.56l1.72,2.63h-.83Zm-2.09-8.08c-.42-.31-.99-.47-1.7-.47h-1.58v3.58h1.51c.76,0,1.34-.15,1.76-.46,.42-.31,.63-.76,.63-1.34s-.21-1.01-.62-1.31Z" style="fill: #fff;"/>
          <path d="M106.87,37.54v-9.14h.7v9.14h-.7Z" style="fill: #fff;"/>
          <path d="M121.5,37.54l-6.94-7.99v7.99h-.71v-9.14h.6c.58,.7,1.16,1.38,1.73,2.04,.57,.66,1.15,1.32,1.74,1.97,.59,.65,1.17,1.31,1.74,1.97,.57,.66,1.15,1.34,1.73,2.04v-8.01h.71v9.14h-.6Z" style="fill: #fff;"/>
          <path d="M134.97,37.43c-.58,.15-1.17,.23-1.77,.23-1.44,0-2.62-.45-3.55-1.34-.95-.89-1.42-2.02-1.42-3.38s.46-2.44,1.38-3.32c.92-.89,2.07-1.34,3.46-1.34,.7,0,1.34,.09,1.93,.28,.6,.19,1.02,.35,1.27,.5v.8c-.5-.29-1.01-.52-1.54-.67-.54-.17-1.09-.25-1.66-.25-1.15,0-2.12,.38-2.91,1.14-.78,.77-1.17,1.73-1.17,2.88,0,1.22,.39,2.2,1.18,2.93,.79,.74,1.84,1.11,3.12,1.11,.52,0,.99-.06,1.42-.17,.45-.12,.79-.25,1.02-.39v-2.47h-1.93v-.59h2.63v3.5c-.42,.21-.91,.4-1.46,.55Z" style="fill: #fff;"/>
          <path d="M149.4,37.54l-.07-.2,6.85-8.35h-6.54v-.59h7.65l.07,.25-6.86,8.29h6.9v.59h-8Z" style="fill: #fff;"/>
          <path d="M169.59,36.51c-.71,.77-1.63,1.15-2.76,1.15s-2.05-.37-2.76-1.11c-.71-.76-1.07-1.73-1.07-2.91v-5.24h.71v5.19c0,1.05,.28,1.88,.84,2.49,.57,.62,1.34,.92,2.29,.92s1.7-.32,2.25-.95c.56-.63,.84-1.47,.84-2.53v-5.12h.71v5.17c0,1.18-.35,2.16-1.06,2.93Z" style="fill: #fff;"/>
        </g>
      </g>
    </g>
  </g>
</svg>