<?xml version="1.0" encoding="UTF-8"?>
<svg id="_圖層_2" data-name="圖層 2" xmlns="http://www.w3.org/2000/svg" width="368.87" height="82.89" viewBox="0 0 368.87 82.89">
  <g id="_圖層_6" data-name="圖層 6">
    <g>
      <g>
        <polygon points="53.32 0 0 0 0 82.76 16.34 72.17 16.34 10.32 52.8 10.32 52.8 12.4 22.78 14.79 22.78 68.11 52.8 70.47 52.8 72.57 22.37 72.57 13.15 82.89 14.18 82.89 53.32 82.89 64.88 82.89 64.88 0 53.32 0" style="fill: #005188;"/>
        <polygon points="52.8 72.57 52.8 70.47 22.78 68.11 22.78 14.79 52.8 12.4 52.8 10.32 16.34 10.32 16.34 72.17 0 82.76 0 82.89 13.15 82.89 22.37 72.57 52.8 72.57" style="fill: #fffcdb;"/>
      </g>
      <g>
        <g>
          <g>
            <rect x="95.26" y="23.17" width="11.91" height="1.55" style="fill: #595757;"/>
            <rect x="95.26" y="17.26" width="11.91" height="1.55" style="fill: #595757;"/>
            <path d="M95.05,40.98h12.34s0-11.9,0-11.9h-12.34v11.9Zm10.79-10.31v8.77h-9.2v-8.77h9.2Z" style="fill: #595757;"/>
            <g>
              <path d="M132.3,7.89l.29,.25,.98-1.22-.27-.23c-2.06-1.74-3.95-3.15-5.78-4.3l-.3-.19-.89,1.29,.32,.2c2.07,1.32,3.97,2.73,5.65,4.19Z" style="fill: #595757;"/>
              <path d="M133.29,30.66c-.3,3.24-.64,5.78-.94,7-.11,.54-.26,1.01-.45,1.39-.19,.42-.28,.54-.27,.54-.03,.02-.04,.03-.06,.04-.1-.07-.33-.27-.76-.9-.87-1.28-2.34-4.78-3.49-9.05,2.4-3.74,4.29-8.59,5.61-14.43l.08-.36-1.53-.32-.08,.35c-1.18,5.08-2.7,9.21-4.63,12.57-1.1-4.92-1.81-10.6-2.1-16.91h9.56v-1.55h-9.63c-.04-1.11-.07-2.82-.07-5.16v-.36h-1.59v.36c0,1.02,.02,2.31,.06,3.91l.02,1.25h-11.73v10.07c0,9.25-.96,16.41-2.87,21.26l-.13,.34,1.46,.57,.13-.34c1.99-5.23,3-12.58,3-21.83v-1.53h7.3v1.85c.01,5.59,.02,10.42-.79,11.41-.1,.14-.44,.37-1.56,.37-.85,0-2.51-.16-4.57-.43l-.37-.05-.16,1.59,.35,.05c2.2,.28,3.88,.43,4.75,.43h.55c1.42,0,2.54-.2,3.01-2.72,.26-1.46,.39-5.95,.39-13.74v-.36h-8.89v-5.4h10.2c.31,7.09,1.15,13.43,2.5,18.85-2.72,4.07-6.5,7.45-11.56,10.32l-.32,.18,.8,1.36,.31-.17c4.87-2.73,8.58-5.89,11.32-9.66,1.09,3.77,2.53,7.09,3.74,8.58,.66,.86,1.16,1.22,1.67,1.22,.56,0,1.05-.28,1.41-.79,.35-.46,.71-1.5,1.06-3.12,.37-1.66,.66-3.87,.87-6.56l.03-.37-1.59-.08-.03,.35Z" style="fill: #595757;"/>
            </g>
            <rect x="95.05" y="5.61" width="12.34" height="1.59" style="fill: #595757;"/>
            <rect x="93.8" y="11.31" width="14.46" height="1.59" style="fill: #595757;"/>
          </g>
          <g>
            <path d="M186.98,5.91h-28.65V15.31h28.65V5.91Zm-27.06,7.81V7.5h25.46v6.22h-25.46Z" style="fill: #595757;"/>
            <path d="M190.48,32.65c-.34,4.85-.55,6.01-3.89,6.66-1.51,.28-5.65,.42-12.66,.42-2.75,0-4.91,0-6.6-.04-3.35-.04-6.84-.4-7.87-.6-.54-.12-.91-.32-1.15-.63-.51-.55-.51-.73-.51-1.76v-7.25s31.29,.04,31.29,.04v-12.16h-32.88v18.96c0,2.31,.95,3.75,2.81,4.28,1.68,.47,7.11,.7,14.9,.7,8.64,0,13.43-.35,15.07-1.11,1.72-.74,2.71-3.17,3.02-7.43l.03-.37-1.55-.08-.02,.36Zm-2.98-13.76v8.98h-13.42v-8.98h13.42Zm-15.01,0v8.98h-14.68v-8.98h14.68Z" style="fill: #595757;"/>
          </g>
          <g>
            <g>
              <path d="M251.61,19.77c-.04,2.07-.06,3.21-.28,4.24l-.03,.14c-.23,1.05-.27,1.18-.73,1.39-.48,.24-.69,.26-1.35,.26h-.6q-1.75,0-1.75-1.36V12.9h-3.59c-.53-1.63-1.04-3.1-1.54-4.36h10.18v-1.55h-14.75c.86-1.1,1.51-2.12,1.98-3.1l.15-.32-1.37-.73-.17,.33c-1.65,3.3-4.55,6.33-8.63,9l-.31,.21,.89,1.29,.3-.2c2.27-1.53,4.18-3.15,5.82-4.94h4.21c.5,1.25,1.02,2.72,1.56,4.36h-9.84v3.3c0,5.42-1.29,8.13-4.92,10.34l-.31,.19,.81,1.37,.32-.2c4.15-2.63,5.69-5.8,5.69-11.7v-1.75h11.92v9.99c0,2.57,.67,2.91,3.34,2.91,.88,0,1.48-.06,1.94-.18,.81-.2,1.8-.64,2.16-2.21,.32-1.35,.44-2.86,.48-5.77v-.37s-1.58,0-1.58,0l-.02,.96Z" style="fill: #595757;"/>
              <path d="M242.52,23.9l.23,.26,1.22-.98-.26-.29c-2.16-2.42-4.48-4.6-6.91-6.48l-.29-.23-.96,1.28,.29,.22c2.51,1.9,4.75,3.99,6.68,6.2Z" style="fill: #595757;"/>
              <path d="M213.2,13.84c1.87-1.58,3.5-3.36,4.83-5.31h3.44c.56,1.44,1.18,3.17,1.94,5.4h-10.25v1.59h6.99v8.86c-2.2,.67-4.68,1.29-7.39,1.85l-.36,.08,.32,1.53,.36-.07c6.59-1.36,12.05-3.1,16.22-5.17l.32-.16-.66-1.4-.33,.17c-1.83,.93-4.15,1.84-6.89,2.68V15.52h7.59v-1.59h-4.25c-.65-1.89-1.29-3.71-1.93-5.4h8.51v-1.55h-12.61c.67-1.11,1.19-2.15,1.58-3.17l.13-.34-1.5-.55-.13,.33c-1.33,3.31-3.94,6.82-6.97,9.39l-.28,.24,1.04,1.2,.27-.23Z" style="fill: #595757;"/>
            </g>
            <path d="M234.93,29.9h16.36v-1.59h-17.95v-3.8h-1.59v3.8h-17.95v1.59h16.36c-3.9,2.99-9.45,5.82-16.51,8.4l-.35,.13,.57,1.45,.33-.12c7.61-2.8,13.51-5.86,17.54-9.1v10.63h1.59v-10.63c4.03,3.25,9.93,6.31,17.54,9.1l.33,.12,.57-1.45-.35-.13c-7.06-2.58-12.61-5.4-16.51-8.4Z" style="fill: #595757;"/>
          </g>
          <g>
            <path d="M279.01,31.76c1.82-3.46,3.22-7.47,3.91-12.05v-1.18h-8.42c2.99-3.56,5.51-7.37,7.52-11.33l.04-1.35h-10.22v1.55h8.31c-2.01,3.85-4.57,7.54-7.83,11.26l-.09,.1v1.32h9.04c-.61,3.64-1.7,7.06-3.23,10.19-1.08-1.82-2.2-4.26-3.42-7.45l-.13-.34-1.45,.57,.13,.34c1.4,3.7,2.77,6.55,4.06,8.48-1.61,2.96-3.7,5.65-6.21,7.99l-.26,.25,1.1,1.19,.27-.26c2.37-2.29,4.42-4.9,6.09-7.76,4.07,5.25,9.33,7.12,19.76,7.12h11.76v-1.59h-11.76c-10.47,0-15.29-1.78-18.94-7.04Z" style="fill: #595757;"/>
            <path d="M307.6,6.27h-10.75V3.3h-1.59v2.98h-11.57v1.55h11.57v4.36h-14.11v1.55h14.11v4.79h-11.18v1.55h11.18v4.58h-12v1.59h12v4.96h-13.68v1.55h13.68v5.09h1.59v-5.09h12.48v-1.55h-12.48v-4.96h11.61v-1.59h-11.61v-4.58h10.75v-6.34h2.98v-1.55h-2.98V6.27Zm-1.55,7.46v4.79h-9.2v-4.79h9.2Zm-9.2-1.55V7.82h9.2v4.36h-9.2Z" style="fill: #595757;"/>
          </g>
          <g>
            <path d="M358.63,33.57c2.88-2.76,5.3-6.39,7.21-10.8l.03-1.33h-19.75v1.55h17.92c-1.72,3.83-3.89,6.95-6.61,9.54-2.73-2.48-4.99-5.24-6.89-8.41l-.19-.31-1.36,.8,.19,.31c1.97,3.3,4.34,6.21,7.05,8.65-2.73,2.37-6.16,4.37-10.46,6.09l-.33,.13,.57,1.46,.34-.14c4.46-1.78,8.09-3.91,11.08-6.5,2.9,2.48,6.12,4.61,9.84,6.48l.34,.17,.64-1.44-.31-.16c-3.58-1.83-6.63-3.83-9.33-6.12Z" style="fill: #595757;"/>
            <path d="M367.25,12.85c-.04,.49-.07,.92-.1,1.27-.03,.43-.05,.75-.08,.96-.08,.82-.54,2.06-.63,2.19-.15,.14-1.13,.54-1.69,.54h-2.12c-.18,0-.52,0-.55,.01-.02-.06-.02-.27-.02-.47V5.35h-11.3v3.56c0,5.5-1.59,8.48-5.48,10.28l-.33,.15,.66,1.39,.33-.16c4.47-2.1,6.38-5.59,6.38-11.68v-1.96h8.16v10.42c0,1.76,.73,2.05,2.48,2.05,1.31,0,2.28-.05,2.85-.13,1.32-.15,2.41-1.32,2.65-2.84,.13-.71,.26-1.84,.39-3.44l.03-.36-1.59-.16-.03,.37Z" style="fill: #595757;"/>
            <g>
              <rect x="330.8" y="23.12" width="11.91" height="1.55" style="fill: #595757;"/>
              <rect x="330.8" y="17.21" width="11.91" height="1.55" style="fill: #595757;"/>
              <path d="M330.59,40.93h12.34s0-11.9,0-11.9h-12.34v11.9Zm10.79-10.31v8.77h-9.2v-8.77h9.2Z" style="fill: #595757;"/>
              <rect x="330.59" y="5.57" width="12.34" height="1.59" style="fill: #595757;"/>
              <rect x="329.34" y="11.26" width="14.46" height="1.59" style="fill: #595757;"/>
            </g>
          </g>
        </g>
        <g>
          <path d="M112.95,79.55c-.55,.21-1.13,.41-1.74,.6-1.21,.36-2.37,.55-3.5,.55-3.12,0-5.67-.94-7.66-2.81-2.01-1.86-3.01-4.27-3.01-7.23s1-5.24,3.01-7.18c2.03-1.91,4.55-2.87,7.58-2.87,1.01,0,2.12,.14,3.33,.43,1.21,.31,2.29,.71,3.24,1.21v1.69c-.92-.54-1.99-1-3.22-1.38-1.15-.36-2.35-.54-3.62-.54-2.49,0-4.56,.82-6.2,2.47-1.66,1.65-2.5,3.7-2.5,6.17s.81,4.62,2.44,6.23c1.63,1.61,3.74,2.41,6.34,2.41,1.4,0,2.69-.21,3.88-.63,.61-.21,1.17-.43,1.68-.67,.51-.24,.98-.48,1.42-.73v1.58c-.44,.27-.93,.51-1.48,.72Z" style="fill: #595757;"/>
          <path d="M140.53,80.44v-9.27h-13.03v9.27h-1.52v-19.58h1.52v9.04h13.03v-9.04h1.52v19.58h-1.52Z" style="fill: #595757;"/>
          <path d="M155.51,80.44v-19.58h10.71v1.26h-9.19v7.84h8.93v1.23l-8.93,.03v7.95h9.39v1.26h-10.91Z" style="fill: #595757;"/>
          <path d="M178.48,80.44v-19.58h10.71v1.26h-9.19v7.84h8.93v1.23l-8.93,.03v7.95h9.39v1.26h-10.91Z" style="fill: #595757;"/>
          <path d="M214.48,80.44l-3.44-5.37c-.34-.56-.68-1.07-1.02-1.55-.34-.48-.67-.91-1.02-1.29-.69-.78-1.7-1.18-3.04-1.18h-2.99v9.39h-1.52v-19.58h4.94c2.09,0,3.7,.43,4.85,1.29,1.15,.9,1.72,2.17,1.72,3.82,0,1.26-.37,2.28-1.12,3.04-.77,.8-1.63,1.36-2.58,1.66,.52,.33,1.07,.89,1.66,1.69,.31,.42,.59,.83,.86,1.23,.27,.4,.54,.8,.8,1.21l3.67,5.63h-1.78Zm-4.48-17.31c-.9-.67-2.12-1-3.65-1h-3.39v7.67h3.24c1.63,0,2.88-.33,3.76-.98,.9-.67,1.35-1.63,1.35-2.87s-.44-2.16-1.32-2.81Z" style="fill: #595757;"/>
          <path d="M228.98,80.44v-19.58h1.49v19.58h-1.49Z" style="fill: #595757;"/>
          <path d="M260.33,80.44l-14.87-17.11v17.11h-1.52v-19.58h1.29c1.24,1.49,2.48,2.95,3.7,4.36,1.22,1.42,2.47,2.82,3.73,4.22,1.26,1.4,2.51,2.8,3.73,4.22,1.22,1.42,2.46,2.87,3.7,4.36v-17.17h1.52v19.58h-1.29Z" style="fill: #595757;"/>
          <path d="M289.18,80.21c-1.24,.32-2.51,.49-3.79,.49-3.08,0-5.62-.96-7.61-2.87-2.03-1.91-3.04-4.33-3.04-7.24s.99-5.22,2.96-7.12c1.97-1.91,4.44-2.87,7.41-2.87,1.49,0,2.87,.2,4.13,.6,1.28,.4,2.19,.76,2.73,1.06v1.72c-1.07-.63-2.17-1.11-3.3-1.44-1.15-.36-2.34-.54-3.56-.54-2.47,0-4.55,.81-6.23,2.44-1.66,1.65-2.5,3.7-2.5,6.17,0,2.62,.84,4.72,2.53,6.29,1.7,1.59,3.93,2.38,6.69,2.38,1.11,0,2.12-.12,3.04-.37,.96-.27,1.68-.55,2.18-.83v-5.28h-4.13v-1.26h5.63v7.49c-.9,.46-1.94,.85-3.13,1.18Z" style="fill: #595757;"/>
          <path d="M320.11,80.44l-.14-.43,14.67-17.89h-14.01v-1.26h16.39l.14,.55-14.7,17.77h14.78v1.26h-17.14Z" style="fill: #595757;"/>
          <path d="M363.37,78.23c-1.53,1.65-3.5,2.47-5.91,2.47s-4.38-.79-5.91-2.38c-1.53-1.63-2.3-3.7-2.3-6.23v-11.22h1.52v11.11c0,2.24,.6,4.02,1.81,5.34,1.22,1.32,2.86,1.98,4.91,1.98s3.64-.68,4.82-2.04c1.21-1.34,1.81-3.15,1.81-5.43v-10.97h1.52v11.08c0,2.53-.76,4.62-2.27,6.29Z" style="fill: #595757;"/>
        </g>
      </g>
    </g>
  </g>
</svg>