<?xml version="1.0" encoding="UTF-8"?>
<svg id="_圖層_2" data-name="圖層 2" xmlns="http://www.w3.org/2000/svg" width="129.95" height="29.06" viewBox="0 0 129.95 29.06">
  <g id="_底圖" data-name="底圖">
    <g>
      <g>
        <g>
          <g>
            <rect x="33.46" y="8.11" width="4.2" height=".55" style="fill: #595757;"/>
            <rect x="33.46" y="6.03" width="4.2" height=".55" style="fill: #595757;"/>
            <path d="M33.39,14.39h4.35s0-4.2,0-4.2h-4.35v4.2Zm3.81-3.63v3.09h-3.24v-3.09h3.24Z" style="fill: #595757;"/>
            <g>
              <path d="M46.52,2.72l.1,.09,.34-.43-.09-.08c-.73-.61-1.39-1.11-2.04-1.52l-.1-.07-.31,.45,.11,.07c.73,.47,1.4,.96,1.99,1.48Z" style="fill: #595757;"/>
              <path d="M46.87,10.75c-.1,1.14-.23,2.04-.33,2.47-.04,.19-.09,.35-.16,.49-.07,.15-.1,.19-.1,.19,0,0-.02,.01-.02,.01-.03-.02-.12-.1-.27-.32-.31-.45-.82-1.69-1.23-3.19,.85-1.32,1.51-3.03,1.98-5.09l.03-.13-.54-.11-.03,.12c-.42,1.79-.95,3.25-1.63,4.43-.39-1.73-.64-3.74-.74-5.96h3.37v-.55h-3.4c-.01-.39-.03-.99-.03-1.82v-.13h-.56v.13c0,.36,0,.81,.02,1.38v.44s-4.13,0-4.13,0v3.55c0,3.26-.34,5.79-1.01,7.5l-.05,.12,.51,.2,.05-.12c.7-1.85,1.06-4.44,1.06-7.7v-.54h2.57v.65c0,1.97,0,3.67-.28,4.02-.04,.05-.16,.13-.55,.13-.3,0-.89-.06-1.61-.15l-.13-.02-.06,.56,.12,.02c.77,.1,1.37,.15,1.67,.15h.19c.5,0,.9-.07,1.06-.96,.09-.51,.14-2.1,.14-4.85v-.13h-3.13v-1.9h3.6c.11,2.5,.41,4.74,.88,6.65-.96,1.43-2.29,2.63-4.08,3.64l-.11,.06,.28,.48,.11-.06c1.72-.96,3.02-2.08,3.99-3.41,.38,1.33,.89,2.5,1.32,3.02,.23,.3,.41,.43,.59,.43,.2,0,.37-.1,.5-.28,.13-.16,.25-.53,.37-1.1,.13-.58,.23-1.36,.31-2.32v-.13s-.55-.03-.55-.03v.12Z" style="fill: #595757;"/>
            </g>
            <rect x="33.39" y="1.92" width="4.35" height=".56" style="fill: #595757;"/>
            <rect x="32.95" y="3.93" width="5.1" height=".56" style="fill: #595757;"/>
          </g>
          <g>
            <path d="M65.81,2.02h-10.1v3.32h10.1V2.02Zm-9.54,2.75V2.58h8.98v2.19h-8.98Z" style="fill: #595757;"/>
            <path d="M67.04,11.45c-.12,1.71-.19,2.12-1.37,2.35-.53,.1-1.99,.15-4.46,.15-.97,0-1.73,0-2.33-.02-1.18-.02-2.41-.14-2.77-.21-.19-.04-.32-.11-.41-.22-.18-.19-.18-.26-.18-.62v-2.56s11.03,.01,11.03,.01V6.06h-11.59v6.69c0,.81,.33,1.32,.99,1.51,.59,.17,2.51,.25,5.26,.25,3.05,0,4.74-.12,5.32-.39,.61-.26,.95-1.12,1.07-2.62v-.13s-.54-.03-.54-.03v.13Zm-1.06-4.85v3.17h-4.73v-3.17h4.73Zm-5.29,0v3.17h-5.18v-3.17h5.18Z" style="fill: #595757;"/>
          </g>
          <g>
            <g>
              <path d="M88.6,6.91c-.01,.73-.02,1.13-.1,1.5v.05c-.09,.37-.11,.41-.27,.49-.17,.08-.24,.09-.48,.09h-.21q-.62,0-.62-.48V4.49h-1.27c-.19-.58-.37-1.09-.54-1.54h3.59v-.55h-5.2c.3-.39,.53-.75,.7-1.09l.05-.11-.48-.26-.06,.12c-.58,1.16-1.61,2.23-3.04,3.18l-.11,.07,.31,.46,.11-.07c.8-.54,1.47-1.11,2.05-1.74h1.48c.18,.44,.36,.96,.55,1.54h-3.47v1.16c0,1.91-.45,2.87-1.73,3.65l-.11,.07,.28,.48,.11-.07c1.46-.93,2.01-2.05,2.01-4.13v-.62h4.2v3.52c0,.91,.24,1.03,1.18,1.03,.31,0,.52-.02,.69-.06,.29-.07,.63-.23,.76-.78,.11-.48,.16-1.01,.17-2.04v-.13s-.56,0-.56,0v.34Z" style="fill: #595757;"/>
              <path d="M85.39,8.37l.08,.09,.43-.34-.09-.1c-.76-.85-1.58-1.62-2.44-2.28l-.1-.08-.34,.45,.1,.08c.88,.67,1.68,1.41,2.35,2.19Z" style="fill: #595757;"/>
              <path d="M75.06,4.82c.66-.56,1.23-1.19,1.7-1.87h1.21c.2,.51,.42,1.12,.68,1.9h-3.62v.56h2.46v3.12c-.77,.24-1.65,.45-2.61,.65l-.13,.03,.11,.54,.13-.03c2.32-.48,4.25-1.09,5.72-1.82l.11-.06-.23-.49-.12,.06c-.65,.33-1.46,.65-2.43,.95v-2.95h2.68v-.56h-1.5c-.23-.67-.46-1.31-.68-1.9h3v-.55h-4.45c.24-.39,.42-.76,.56-1.12l.05-.12-.53-.19-.05,.12c-.47,1.17-1.39,2.41-2.46,3.31l-.1,.08,.37,.42,.1-.08Z" style="fill: #595757;"/>
            </g>
            <path d="M82.72,10.48h5.77v-.56h-6.33v-1.34h-.56v1.34h-6.33v.56h5.77c-1.38,1.06-3.33,2.05-5.82,2.96l-.12,.05,.2,.51,.12-.04c2.69-.99,4.76-2.06,6.19-3.21v3.75h.56v-3.75c1.42,1.14,3.5,2.22,6.19,3.21l.12,.04,.2-.51-.12-.05c-2.49-.91-4.45-1.91-5.82-2.96Z" style="fill: #595757;"/>
          </g>
          <g>
            <path d="M98.26,11.14c.64-1.22,1.13-2.63,1.38-4.25v-.42h-2.97c1.05-1.26,1.94-2.6,2.65-4v-.48s-3.59,0-3.59,0v.55h2.93c-.71,1.36-1.61,2.66-2.76,3.97l-.03,.04v.47h3.19c-.22,1.28-.6,2.49-1.14,3.59-.38-.64-.78-1.5-1.21-2.63l-.05-.12-.51,.2,.05,.12c.5,1.31,.98,2.31,1.43,2.99-.57,1.05-1.31,1.99-2.19,2.82l-.09,.09,.39,.42,.09-.09c.84-.81,1.56-1.73,2.15-2.74,1.43,1.85,3.29,2.51,6.97,2.51h4.15v-.56h-4.15c-3.69,0-5.39-.63-6.68-2.48Z" style="fill: #595757;"/>
            <path d="M108.35,2.15h-3.79V1.1h-.56v1.05h-4.08v.55h4.08v1.54h-4.98v.55h4.98v1.69h-3.94v.55h3.94v1.61h-4.23v.56h4.23v1.75h-4.83v.55h4.83v1.8h.56v-1.8h4.4v-.55h-4.4v-1.75h4.09v-.56h-4.09v-1.61h3.79v-2.24h1.05v-.55h-1.05V2.15Zm-.55,2.63v1.69h-3.24v-1.69h3.24Zm-3.24-.55v-1.54h3.24v1.54h-3.24Z" style="fill: #595757;"/>
          </g>
          <g>
            <path d="M126.34,11.78c1.01-.97,1.87-2.25,2.54-3.81v-.47s-6.96,0-6.96,0v.55h6.32c-.61,1.35-1.37,2.45-2.33,3.36-.96-.88-1.76-1.85-2.43-2.96l-.07-.11-.48,.28,.07,.11c.7,1.16,1.53,2.19,2.49,3.05-.96,.83-2.17,1.54-3.69,2.15l-.12,.05,.2,.51,.12-.05c1.57-.63,2.85-1.38,3.91-2.29,1.02,.88,2.16,1.62,3.47,2.29l.12,.06,.23-.51-.11-.06c-1.26-.65-2.34-1.35-3.29-2.16Z" style="fill: #595757;"/>
            <path d="M129.38,4.47c-.01,.17-.02,.32-.03,.45-.01,.15-.02,.26-.03,.34-.03,.29-.19,.73-.22,.77-.05,.05-.4,.19-.59,.19h-.75c-.06,0-.18,0-.2,0,0-.02,0-.1,0-.16V1.83h-3.98v1.25c0,1.94-.56,2.99-1.93,3.63l-.12,.05,.23,.49,.12-.05c1.58-.74,2.25-1.97,2.25-4.12v-.69h2.88v3.68c0,.62,.26,.72,.87,.72,.46,0,.8-.02,1-.05,.47-.05,.85-.47,.93-1,.05-.25,.09-.65,.14-1.21v-.13s-.55-.06-.55-.06v.13Z" style="fill: #595757;"/>
            <g>
              <rect x="116.53" y="8.09" width="4.2" height=".55" style="fill: #595757;"/>
              <rect x="116.53" y="6.01" width="4.2" height=".55" style="fill: #595757;"/>
              <path d="M116.45,14.37h4.35s0-4.2,0-4.2h-4.35v4.2Zm3.81-3.63v3.09h-3.24v-3.09h3.24Z" style="fill: #595757;"/>
              <rect x="116.45" y="1.9" width="4.35" height=".56" style="fill: #595757;"/>
              <rect x="116.01" y="3.91" width="5.1" height=".56" style="fill: #595757;"/>
            </g>
          </g>
        </g>
        <g>
          <path d="M39.7,27.99c-.19,.07-.4,.15-.61,.21-.43,.13-.84,.19-1.24,.19-1.1,0-2-.33-2.7-.99-.71-.65-1.06-1.5-1.06-2.55s.35-1.85,1.06-2.53c.72-.67,1.61-1.01,2.67-1.01,.36,0,.75,.05,1.17,.15,.43,.11,.81,.25,1.14,.43v.6c-.32-.19-.7-.35-1.13-.49-.4-.13-.83-.19-1.28-.19-.88,0-1.61,.29-2.19,.87-.59,.58-.88,1.31-.88,2.18s.29,1.63,.86,2.2c.57,.57,1.32,.85,2.24,.85,.49,0,.95-.07,1.37-.22,.22-.07,.41-.15,.59-.24,.18-.08,.35-.17,.5-.26v.56c-.16,.09-.33,.18-.52,.25Z" style="fill: #595757;"/>
          <path d="M49.43,28.31v-3.27h-4.6v3.27h-.54v-6.9h.54v3.19h4.6v-3.19h.54v6.9h-.54Z" style="fill: #595757;"/>
          <path d="M54.71,28.31v-6.9h3.78v.45h-3.24v2.76h3.15v.44h-3.15v2.81h3.31v.45h-3.85Z" style="fill: #595757;"/>
          <path d="M62.81,28.31v-6.9h3.78v.45h-3.24v2.76h3.15v.44h-3.15v2.81h3.31v.45h-3.85Z" style="fill: #595757;"/>
          <path d="M75.51,28.31l-1.21-1.89c-.12-.2-.24-.38-.36-.55-.12-.17-.24-.32-.36-.46-.24-.28-.6-.42-1.07-.42h-1.05v3.31h-.54v-6.9h1.74c.74,0,1.31,.15,1.71,.46,.4,.32,.61,.77,.61,1.35,0,.45-.13,.8-.4,1.07-.27,.28-.57,.48-.91,.59,.18,.11,.38,.31,.59,.6,.11,.15,.21,.29,.3,.44,.09,.14,.19,.28,.28,.43l1.3,1.98h-.63Zm-1.58-6.1c-.32-.24-.75-.35-1.29-.35h-1.19v2.7h1.14c.57,0,1.02-.11,1.33-.34,.32-.24,.48-.57,.48-1.01s-.16-.76-.47-.99Z" style="fill: #595757;"/>
          <path d="M80.62,28.31v-6.9h.53v6.9h-.53Z" style="fill: #595757;"/>
          <path d="M91.68,28.31l-5.24-6.03v6.03h-.54v-6.9h.46c.44,.53,.87,1.04,1.31,1.54,.43,.5,.87,1,1.32,1.49,.45,.49,.88,.99,1.32,1.49,.43,.5,.87,1.01,1.31,1.54v-6.05h.54v6.9h-.46Z" style="fill: #595757;"/>
          <path d="M101.85,28.22c-.44,.11-.88,.17-1.34,.17-1.09,0-1.98-.34-2.68-1.01-.72-.67-1.07-1.53-1.07-2.55s.35-1.84,1.04-2.51c.7-.67,1.57-1.01,2.61-1.01,.53,0,1.01,.07,1.46,.21,.45,.14,.77,.27,.96,.37v.61c-.38-.22-.77-.39-1.16-.51-.4-.13-.82-.19-1.26-.19-.87,0-1.6,.29-2.2,.86-.59,.58-.88,1.31-.88,2.18,0,.92,.3,1.66,.89,2.22,.6,.56,1.39,.84,2.36,.84,.39,0,.75-.04,1.07-.13,.34-.09,.59-.19,.77-.29v-1.86h-1.46v-.45h1.98v2.64c-.32,.16-.69,.3-1.1,.42Z" style="fill: #595757;"/>
          <path d="M112.76,28.31l-.05-.15,5.17-6.31h-4.94v-.45h5.78l.05,.19-5.18,6.27h5.21v.45h-6.04Z" style="fill: #595757;"/>
          <path d="M128.01,27.53c-.54,.58-1.24,.87-2.09,.87s-1.55-.28-2.09-.84c-.54-.57-.81-1.31-.81-2.2v-3.96h.54v3.92c0,.79,.21,1.42,.64,1.88,.43,.47,1.01,.7,1.73,.7s1.28-.24,1.7-.72c.43-.47,.64-1.11,.64-1.91v-3.87h.54v3.91c0,.89-.27,1.63-.8,2.22Z" style="fill: #595757;"/>
        </g>
      </g>
      <g>
        <polygon points="18.7 0 0 0 0 29.02 5.73 25.3 5.73 3.62 18.51 3.62 18.51 4.35 7.99 5.18 7.99 23.88 18.51 24.71 18.51 25.45 7.84 25.45 4.61 29.06 4.97 29.06 18.7 29.06 22.75 29.06 22.75 0 18.7 0" style="fill: #115992;"/>
        <polygon points="18.51 25.45 18.51 24.71 7.99 23.88 7.99 5.18 18.51 4.35 18.51 3.62 5.73 3.62 5.73 25.3 0 29.02 0 29.06 4.61 29.06 7.84 25.45 18.51 25.45" style="fill: #fffcdb;"/>
      </g>
    </g>
  </g>
</svg>