<?xml version="1.0" encoding="UTF-8"?>
<svg id="_圖層_2" data-name="圖層 2" xmlns="http://www.w3.org/2000/svg" width="294.95" height="57.91" viewBox="0 0 294.95 57.91">
  <g id="_圖層_1-2" data-name="圖層 1">
    <g>
      <g>
        <polygon points="37.25 0 0 0 0 57.82 11.42 50.42 11.42 7.21 36.89 7.21 36.89 8.67 15.91 10.33 15.91 47.58 36.89 49.23 36.89 50.7 15.63 50.7 9.19 57.91 9.91 57.91 37.25 57.91 45.32 57.91 45.32 0 37.25 0" style="fill: #115992;"/>
        <polygon points="36.89 50.7 36.89 49.23 15.91 47.58 15.91 10.33 36.89 8.67 36.89 7.21 11.42 7.21 11.42 50.42 0 57.82 0 57.91 9.19 57.91 15.63 50.7 36.89 50.7" style="fill: #fffcdb;"/>
      </g>
      <g>
        <g>
          <path d="M86.18,28.21c-.71,.27-1.46,.53-2.25,.78-1.56,.47-3.08,.71-4.54,.71-4.05,0-7.36-1.22-9.95-3.65-2.61-2.41-3.91-5.54-3.91-9.39s1.3-6.8,3.91-9.31c2.63-2.48,5.91-3.72,9.83-3.72,1.32,0,2.76,.19,4.32,.56,1.56,.4,2.97,.92,4.21,1.56v2.2c-1.19-.7-2.58-1.29-4.17-1.79-1.49-.47-3.05-.71-4.69-.71-3.23,0-5.91,1.07-8.05,3.2-2.16,2.14-3.24,4.8-3.24,8.01s1.05,6,3.17,8.08c2.11,2.09,4.85,3.13,8.23,3.13,1.81,0,3.49-.27,5.03-.82,.79-.27,1.52-.56,2.18-.88,.66-.31,1.27-.63,1.84-.95v2.05c-.57,.35-1.21,.66-1.92,.93Z" style="fill: #595757;"/>
          <path d="M113.06,29.36v-12.03h-16.91v12.03h-1.97V3.96h1.97V15.69h16.91V3.96h1.97V29.36h-1.97Z" style="fill: #595757;"/>
          <path d="M123.6,29.36V3.96h13.89v1.64h-11.92V15.76h11.58v1.6l-11.58,.04v10.32h12.18v1.64h-14.15Z" style="fill: #595757;"/>
          <path d="M144.49,29.36V3.96h13.89v1.64h-11.92V15.76h11.58v1.6l-11.58,.04v10.32h12.18v1.64h-14.15Z" style="fill: #595757;"/>
          <path d="M182.3,29.36l-4.47-6.97c-.45-.72-.89-1.39-1.32-2.01-.44-.62-.88-1.18-1.32-1.68-.89-1.02-2.21-1.53-3.95-1.53h-3.87v12.18h-1.97V3.96h6.41c2.71,0,4.8,.56,6.29,1.68,1.49,1.17,2.23,2.82,2.23,4.95,0,1.64-.48,2.96-1.45,3.95-.99,1.04-2.11,1.76-3.35,2.16,.67,.42,1.39,1.15,2.16,2.2,.4,.55,.77,1.08,1.12,1.6,.35,.52,.69,1.04,1.04,1.56l4.77,7.3h-2.31Zm-5.81-22.46c-1.17-.87-2.74-1.3-4.73-1.3h-4.39V15.54h4.21c2.11,0,3.74-.42,4.88-1.27,1.17-.87,1.75-2.11,1.75-3.72s-.57-2.81-1.71-3.65Z" style="fill: #595757;"/>
          <path d="M192.21,29.36V3.96h1.94V29.36h-1.94Z" style="fill: #595757;"/>
          <path d="M223.98,29.36l-19.29-22.2V29.36h-1.97V3.96h1.68c1.61,1.94,3.22,3.82,4.8,5.66,1.59,1.84,3.2,3.66,4.84,5.47,1.64,1.81,3.25,3.64,4.84,5.48,1.59,1.84,3.19,3.72,4.8,5.66V3.96h1.97V29.36h-1.68Z" style="fill: #595757;"/>
          <path d="M252.51,29.06c-1.61,.42-3.25,.63-4.92,.63-4,0-7.29-1.24-9.87-3.72-2.63-2.48-3.95-5.61-3.95-9.39s1.28-6.78,3.84-9.24c2.56-2.48,5.76-3.72,9.61-3.72,1.94,0,3.72,.26,5.36,.78,1.66,.52,2.84,.98,3.54,1.38v2.23c-1.39-.82-2.82-1.44-4.28-1.86-1.49-.47-3.03-.71-4.62-.71-3.2,0-5.9,1.06-8.08,3.17-2.16,2.14-3.24,4.8-3.24,8.01,0,3.4,1.09,6.12,3.28,8.16,2.21,2.06,5.1,3.09,8.68,3.09,1.44,0,2.76-.16,3.95-.48,1.24-.35,2.18-.71,2.83-1.08v-6.85h-5.36v-1.64h7.3v9.72c-1.17,.6-2.52,1.11-4.06,1.53Z" style="fill: #595757;"/>
        </g>
        <g>
          <polygon points="279.71 4.81 279.74 4.76 279.53 3.94 267.77 3.94 267.77 5.53 276.87 5.53 267.31 17.17 267.27 17.22 267.51 17.97 279.77 17.97 279.77 16.37 270.14 16.37 279.71 4.81" style="fill: #595757;"/>
          <path d="M293.2,3.94v7.81c0,.74-.1,1.4-.3,1.96-.2,.56-.48,1.06-.84,1.49-.74,.84-1.75,1.27-3.01,1.27s-2.32-.41-3.07-1.23c-.74-.82-1.12-1.96-1.12-3.39V3.94h-1.75v7.99c0,1.83,.55,3.34,1.65,4.48,1.11,1.15,2.55,1.73,4.27,1.73s3.19-.61,4.27-1.81c1.09-1.17,1.65-2.69,1.65-4.5V3.94h-1.75Z" style="fill: #595757;"/>
        </g>
        <g>
          <g>
            <rect x="67.8" y="48.19" width="4.01" height=".52" style="fill: #595757;"/>
            <rect x="67.8" y="46.19" width="4.01" height=".52" style="fill: #595757;"/>
            <path d="M67.72,54.18h4.16s0-4.01,0-4.01h-4.16v4.01Zm3.64-3.47v2.95h-3.1v-2.95h3.1Z" style="fill: #595757;"/>
            <g>
              <path d="M80.27,43.04l.1,.08,.33-.41-.09-.08c-.69-.59-1.33-1.06-1.95-1.45l-.1-.06-.3,.43,.11,.07c.7,.45,1.34,.92,1.9,1.41Z" style="fill: #595757;"/>
              <path d="M80.61,50.71c-.1,1.09-.22,1.95-.32,2.36-.04,.18-.09,.34-.15,.47-.06,.14-.1,.18-.1,.18,0,0-.01,0-.02,.01-.03-.02-.11-.09-.26-.3-.29-.43-.79-1.61-1.18-3.05,.81-1.26,1.45-2.9,1.89-4.86l.03-.12-.52-.11-.03,.12c-.4,1.71-.91,3.1-1.56,4.24-.37-1.66-.61-3.57-.71-5.7h3.22v-.52h-3.25c-.01-.37-.03-.95-.03-1.74v-.12h-.54v.12c0,.34,0,.78,.02,1.32v.42s-3.94,0-3.94,0v3.39c0,3.12-.32,5.53-.97,7.16l-.05,.12,.49,.19,.04-.12c.67-1.76,1.01-4.24,1.01-7.35v-.52h2.46v.62c0,1.88,0,3.51-.27,3.84-.04,.05-.15,.13-.53,.13-.29,0-.85-.05-1.54-.14l-.13-.02-.05,.54,.12,.02c.74,.09,1.31,.15,1.6,.15h.18c.48,0,.86-.07,1.01-.91,.09-.49,.13-2,.13-4.63v-.12h-2.99v-1.82h3.44c.1,2.39,.39,4.52,.84,6.35-.92,1.37-2.19,2.51-3.9,3.48l-.11,.06,.27,.46,.1-.06c1.64-.92,2.89-1.98,3.81-3.26,.37,1.27,.85,2.39,1.26,2.89,.22,.29,.39,.41,.56,.41,.19,0,.36-.09,.48-.27,.12-.15,.24-.51,.36-1.05,.12-.56,.22-1.3,.29-2.21v-.13s-.52-.03-.52-.03v.12Z" style="fill: #595757;"/>
            </g>
            <rect x="67.72" y="42.27" width="4.16" height=".54" style="fill: #595757;"/>
            <rect x="67.3" y="44.19" width="4.87" height=".54" style="fill: #595757;"/>
          </g>
          <g>
            <path d="M96.75,42.37h-9.65v3.17h9.65v-3.17Zm-9.11,2.63v-2.09h8.58v2.09h-8.58Z" style="fill: #595757;"/>
            <path d="M97.93,51.38c-.12,1.63-.19,2.03-1.31,2.24-.51,.1-1.9,.14-4.26,.14-.92,0-1.66,0-2.22-.01-1.13-.01-2.3-.13-2.65-.2-.18-.04-.31-.11-.39-.21-.17-.18-.17-.25-.17-.59v-2.44s10.54,.01,10.54,.01v-4.1h-11.07v6.39c0,.78,.32,1.26,.95,1.44,.57,.16,2.4,.24,5.02,.24,2.91,0,4.52-.12,5.08-.37,.58-.25,.91-1.07,1.02-2.5v-.12s-.51-.03-.51-.03v.12Zm-1.01-4.63v3.02h-4.52v-3.02h4.52Zm-5.06,0v3.02h-4.94v-3.02h4.94Z" style="fill: #595757;"/>
          </g>
          <g>
            <g>
              <path d="M116.58,47.04c-.01,.7-.02,1.08-.1,1.43v.05c-.09,.35-.1,.4-.25,.47-.16,.08-.23,.09-.46,.09h-.2q-.59,0-.59-.46v-3.89h-1.21c-.18-.55-.35-1.04-.52-1.47h3.43v-.52h-4.97c.29-.37,.51-.71,.67-1.04l.05-.11-.46-.24-.06,.11c-.56,1.11-1.53,2.13-2.91,3.03l-.11,.07,.3,.44,.1-.07c.76-.51,1.41-1.06,1.96-1.66h1.42c.17,.42,.35,.92,.53,1.47h-3.31v1.11c0,1.83-.43,2.74-1.66,3.48l-.1,.06,.27,.46,.11-.07c1.4-.89,1.92-1.96,1.92-3.94v-.59h4.01v3.37c0,.86,.23,.98,1.13,.98,.3,0,.5-.02,.65-.06,.27-.07,.61-.22,.73-.75,.11-.45,.15-.96,.16-1.94v-.12s-.53,0-.53,0v.32Z" style="fill: #595757;"/>
              <path d="M113.52,48.43l.08,.09,.41-.33-.09-.1c-.73-.82-1.51-1.55-2.33-2.18l-.1-.08-.32,.43,.1,.07c.84,.64,1.6,1.34,2.25,2.09Z" style="fill: #595757;"/>
              <path d="M103.64,45.04c.63-.53,1.18-1.13,1.63-1.79h1.16c.19,.48,.4,1.07,.65,1.82h-3.45v.54h2.35v2.98c-.74,.22-1.58,.43-2.49,.62l-.12,.03,.11,.52,.12-.02c2.22-.46,4.06-1.04,5.47-1.74l.11-.05-.22-.47-.11,.06c-.62,.31-1.4,.62-2.32,.9v-2.82h2.56v-.54h-1.43c-.22-.64-.44-1.25-.65-1.82h2.87v-.52h-4.25c.23-.37,.4-.72,.53-1.07l.04-.12-.5-.19-.04,.11c-.45,1.12-1.33,2.3-2.35,3.16l-.09,.08,.35,.4,.09-.08Z" style="fill: #595757;"/>
            </g>
            <path d="M110.96,50.45h5.51v-.54h-6.05v-1.28h-.54v1.28h-6.05v.54h5.51c-1.31,1.01-3.18,1.96-5.56,2.83l-.12,.04,.19,.49,.11-.04c2.57-.94,4.55-1.97,5.91-3.07v3.58h.54v-3.58c1.36,1.09,3.34,2.12,5.91,3.07l.11,.04,.19-.49-.12-.04c-2.38-.87-4.25-1.82-5.56-2.83Z" style="fill: #595757;"/>
          </g>
          <g>
            <path d="M123.87,51.08c.61-1.16,1.08-2.52,1.32-4.06v-.4h-2.84c1.01-1.2,1.86-2.48,2.53-3.82v-.45s-3.43,0-3.43,0v.52h2.8c-.68,1.3-1.54,2.54-2.64,3.79l-.03,.04v.44h3.04c-.21,1.22-.57,2.38-1.09,3.43-.36-.61-.74-1.44-1.15-2.51l-.04-.12-.49,.19,.04,.11c.47,1.25,.93,2.21,1.37,2.86-.54,1-1.25,1.9-2.09,2.69l-.09,.08,.37,.4,.09-.09c.8-.77,1.49-1.65,2.05-2.61,1.37,1.77,3.14,2.4,6.66,2.4h3.96v-.54h-3.96c-3.53,0-5.15-.6-6.38-2.37Z" style="fill: #595757;"/>
            <path d="M133.5,42.49h-3.62v-1h-.54v1h-3.9v.52h3.9v1.47h-4.75v.52h4.75v1.61h-3.77v.52h3.77v1.54h-4.04v.54h4.04v1.67h-4.61v.52h4.61v1.72h.54v-1.72h4.2v-.52h-4.2v-1.67h3.91v-.54h-3.91v-1.54h3.62v-2.14h1v-.52h-1v-1.99Zm-.52,2.51v1.61h-3.1v-1.61h3.1Zm-3.1-.52v-1.47h3.1v1.47h-3.1Z" style="fill: #595757;"/>
          </g>
          <g>
            <path d="M169.61,44.59c-.01,.16-.02,.31-.03,.43-.01,.14-.02,.25-.03,.32-.03,.28-.18,.69-.21,.74-.05,.05-.38,.18-.57,.18h-.71c-.06,0-.18,0-.19,0,0-.02,0-.09,0-.16v-4.05h-4.37v1.2c0,1.85-.54,2.86-1.85,3.46l-.11,.05,.22,.47,.11-.05c1.51-.71,2.15-1.88,2.15-3.93v-.66h3.31v3.51c0,.59,.25,.69,.83,.69,.44,0,.77-.02,.96-.04,.44-.05,.81-.44,.89-.96,.04-.24,.09-.62,.13-1.16v-.12s-.53-.05-.53-.05v.12Z" style="fill: #595757;"/>
            <path d="M166.41,51.6c1.1-.95,2.02-2.19,2.72-3.66v-.45s-7.35,0-7.35,0v.52h6.73c-.66,1.3-1.51,2.39-2.52,3.25-1.09-.88-1.98-1.84-2.66-2.87l-.07-.1-.43,.3,.07,.1c.69,1.06,1.57,2.02,2.67,2.92-1.04,.79-2.34,1.47-3.88,2.02l-.12,.04,.19,.49,.11-.04c1.64-.59,3.02-1.31,4.13-2.17,1.07,.83,2.26,1.54,3.64,2.17l.11,.05,.22-.49-.11-.05c-1.27-.58-2.42-1.26-3.43-2.03Z" style="fill: #595757;"/>
            <path d="M157.09,47.46c0,3.1-.27,4.93-.98,6.52l-.05,.12,.49,.19,.05-.11c.53-1.23,.85-2.78,.96-4.61h2.73v3.15c0,.69-.05,.8-.06,.81,0,0-.06,.07-.39,.07-.21,0-.62-.02-1.24-.06l-.43-.02-.03,.54,.34,.02c.68,.04,1.13,.06,1.36,.06,.89,0,.98-.27,.98-1.42v-10.66h-3.73v5.4Zm.52-2.06v-2.81h2.68v2.81h-2.68Zm2.68,.54v3.1h-2.7c.01-.34,.02-.86,.02-1.58v-1.52h2.68Z" style="fill: #595757;"/>
          </g>
          <g>
            <path d="M183.73,42.01l-.03-.08h-3.01v.54h2.66c.59,1.38,1.37,2.68,2.32,3.88h-7.04v.54h2.33c-.27,3.18-1.62,5.31-4.25,6.69l-.11,.06,.25,.46,.11-.06c2.83-1.49,4.28-3.76,4.55-7.15h3.69c0,1.87-.07,3.32-.2,4.29-.16,1.19-.36,1.63-.5,1.8-.19,.23-.49,.35-.89,.35-.63,0-1.35-.02-2.33-.07h-.12s-.03,.53-.03,.53h.12c.97,.06,1.72,.08,2.36,.08,1.21,0,1.68-.64,1.92-2.63,.13-.98,.19-2.49,.19-4.61v-.23c.3,.38,.63,.75,.97,1.11l.08,.09,.4-.35-.09-.09c-1.46-1.54-2.58-3.27-3.33-5.14Z" style="fill: #595757;"/>
            <path d="M177.19,47.24l.38,.36,.08-.09c1.26-1.35,2.22-2.93,2.83-4.71l.04-.11-.49-.19-.04,.12c-.59,1.69-1.5,3.22-2.72,4.53l-.08,.09Z" style="fill: #595757;"/>
            <path d="M177.47,41.58l-.51-.13-.03,.12c-.7,2.75-1.88,5.16-3.51,7.16l-.07,.09,.4,.35,.08-.1c.61-.76,1.15-1.54,1.6-2.33v7.55h.52v-8.53c.05-.08,.12-.24,.13-.28,.57-1.18,1.03-2.45,1.36-3.77l.03-.12Z" style="fill: #595757;"/>
          </g>
          <path d="M196.59,41.7l.04-.11-.49-.16-.04,.12c-.2,.61-.37,1.1-.5,1.45h-4.14v.54h3.92c-.95,2.24-2.2,3.87-4.18,5.43l-.1,.08,.33,.41,.1-.08c1.1-.86,2.01-1.78,2.71-2.72v7.63h.54v-2.85h7.72v1.85c0,.27-.06,.33-.06,.33,0,0-.12,.06-.81,.06-.4,0-1.01-.03-1.99-.07h-.12s-.03,.53-.03,.53h.12c.96,.05,1.6,.08,2.01,.08,1.06,0,1.4-.07,1.4-.92v-7.74h-8.08c.39-.67,.73-1.35,1-2.02h8.28v-.54h-8.07c.13-.35,.27-.76,.43-1.29Zm-1.83,6.5v-2.11h7.72v2.11h-7.72Zm7.72,.52v2.18h-7.72v-2.18h7.72Z" style="fill: #595757;"/>
          <g>
            <path d="M245.66,42.22v.54h11.25v10.13q0,.86-.88,.86c-.1,0-.39-.01-.89-.03l-1.35-.05-.03,.53,1.33,.05c.53,.02,.84,.03,.94,.03,1.19,0,1.4-.21,1.4-1.4v-10.66h-11.77Z" style="fill: #595757;"/>
            <path d="M254.45,47.06h-7.22v5.23h7.22s0-5.23,0-5.23Zm-.54,.54v4.16h-6.15v-4.16h6.15Z" style="fill: #595757;"/>
            <rect x="246.37" y="44.65" width="9.07" height=".52" style="fill: #595757;"/>
          </g>
          <g>
            <path d="M148.75,51.69c.97-.93,1.79-2.15,2.43-3.64v-.45s-6.64,0-6.64,0v.52h6.04c-.58,1.29-1.31,2.34-2.23,3.21-.92-.84-1.68-1.76-2.32-2.83l-.06-.1-.46,.27,.06,.11c.66,1.11,1.46,2.09,2.38,2.92-.92,.8-2.07,1.47-3.52,2.05l-.11,.05,.19,.49,.12-.05c1.5-.6,2.73-1.32,3.73-2.19,.98,.84,2.06,1.55,3.32,2.18l.12,.06,.22-.49-.1-.05c-1.21-.62-2.23-1.29-3.14-2.06Z" style="fill: #595757;"/>
            <path d="M151.65,44.71c-.01,.17-.02,.31-.03,.43-.01,.14-.02,.25-.03,.32-.03,.28-.18,.69-.21,.74-.05,.05-.38,.18-.57,.18h-.71c-.06,0-.18,0-.19,0,0-.02,0-.09,0-.16v-4.05h-3.81v1.2c0,1.85-.54,2.86-1.85,3.46l-.11,.05,.22,.47,.11-.05c1.51-.71,2.15-1.88,2.15-3.93v-.66h2.75v3.51c0,.59,.25,.69,.84,.69,.44,0,.77-.02,.96-.04,.44-.05,.81-.44,.89-.96,.04-.24,.09-.62,.13-1.16v-.12s-.53-.05-.53-.05v.12Z" style="fill: #595757;"/>
            <g>
              <rect x="139.38" y="48.17" width="4.01" height=".52" style="fill: #595757;"/>
              <rect x="139.38" y="46.18" width="4.01" height=".52" style="fill: #595757;"/>
              <path d="M139.3,54.17h4.16s0-4.01,0-4.01h-4.16v4.01Zm3.64-3.47v2.95h-3.1v-2.95h3.1Z" style="fill: #595757;"/>
              <rect x="139.3" y="42.25" width="4.16" height=".54" style="fill: #595757;"/>
              <rect x="138.88" y="44.17" width="4.87" height=".54" style="fill: #595757;"/>
            </g>
          </g>
          <g>
            <path d="M214.01,49.54c0-1.22-.32-2.02-1.37-3.36,.72-1.15,1.32-2.38,1.8-3.64v-.46s-4.37,0-4.37,0v12.21h.52v-11.67h3.25c-.48,1.22-1.08,2.4-1.8,3.52l-.05,.07,.06,.07c1.12,1.38,1.43,2.08,1.43,3.26,0,.92-.33,1.23-1.3,1.23h-.82v.54h.82c1.27,0,1.84-.54,1.84-1.77Z" style="fill: #595757;"/>
            <path d="M223.32,53.72c-1.15-.57-2.17-1.41-3.05-2.5,1.07-.83,2.04-1.82,2.89-2.94l.07-.1-.41-.33-.08,.1c-.83,1.12-1.77,2.08-2.8,2.85-.59-.83-1.05-1.71-1.37-2.64h3.82v-6.02h-7.22v11.8c1.34-.24,2.72-.56,4.12-.95l.12-.03-.16-.51-.12,.03c-1.11,.32-2.23,.59-3.43,.83v-5.15h2.32c.88,2.66,2.76,4.91,5.05,6.03l.11,.05,.24-.48-.11-.05Zm-7.61-11.03h6.17v2.09h-6.17v-2.09Zm0,4.94v-2.31h6.17v2.31h-6.17Z" style="fill: #595757;"/>
          </g>
          <g>
            <g>
              <path d="M232.46,41.99l.05-.11-.46-.25-.06,.11c-1.02,1.97-2.52,3.72-4.48,5.19l-.1,.08,.33,.41,.1-.07c2.04-1.54,3.6-3.35,4.63-5.36Z" style="fill: #595757;"/>
              <path d="M236.43,41.74l-.06-.11-.46,.25,.05,.11c1.03,2.02,2.59,3.82,4.63,5.36l.09,.07,.33-.41-.1-.08c-1.95-1.47-3.46-3.21-4.48-5.19Z" style="fill: #595757;"/>
            </g>
            <path d="M240.53,53.95c-.91-1.9-1.97-3.78-3.15-5.57l-.07-.1-.43,.29,.07,.1c.65,1,1.34,2.15,2.09,3.51-2.79,.22-5.94,.33-8.48,.31,1.05-2.04,2.23-4.14,3.15-6.65l.04-.12-.5-.18-.04,.11c-.86,2.5-3.58,7.34-3.58,7.34,2.97,.06,6.63-.05,9.68-.32,.16,.29,.4,.77,.75,1.49l.05,.11,.48-.23-.05-.11Z" style="fill: #595757;"/>
          </g>
        </g>
      </g>
    </g>
  </g>
</svg>