<?xml version="1.0" encoding="UTF-8"?>
<svg id="_圖層_2" data-name="圖層 2" xmlns="http://www.w3.org/2000/svg" width="193.77" height="38.01" viewBox="0 0 193.77 38.01">
  <g id="_圖層_1-2" data-name="圖層 1">
    <g>
      <g>
        <polygon points="24.45 0 0 0 0 37.95 7.49 33.09 7.49 4.73 24.21 4.73 24.21 5.69 10.45 6.78 10.45 31.23 24.21 32.32 24.21 33.28 10.26 33.28 6.03 38.01 6.5 38.01 24.45 38.01 29.75 38.01 29.75 0 24.45 0" style="fill: #005188;"/>
        <polygon points="24.21 33.28 24.21 32.32 10.45 31.23 10.45 6.78 24.21 5.69 24.21 4.73 7.49 4.73 7.49 33.09 0 37.95 0 38.01 6.03 38.01 10.26 33.28 24.21 33.28" style="fill: #fffcdb;"/>
      </g>
      <g>
        <g>
          <path d="M56.89,26.58c-.46,.18-.96,.35-1.48,.51-1.03,.31-2.02,.46-2.98,.46-2.65,0-4.83-.8-6.52-2.39-1.71-1.58-2.56-3.63-2.56-6.15s.86-4.46,2.56-6.11c1.73-1.63,3.87-2.44,6.45-2.44,.86,0,1.81,.12,2.83,.37,1.03,.26,1.95,.6,2.76,1.03v1.44c-.78-.46-1.69-.85-2.74-1.17-.98-.31-2-.46-3.08-.46-2.12,0-3.88,.7-5.28,2.1-1.42,1.4-2.12,3.15-2.12,5.25s.69,3.93,2.08,5.3c1.38,1.37,3.18,2.05,5.4,2.05,1.19,0,2.29-.18,3.3-.54,.52-.18,1-.37,1.43-.57,.43-.2,.83-.41,1.21-.62v1.34c-.37,.23-.79,.43-1.26,.61Z" style="fill: #595757;"/>
          <path d="M74.51,27.33v-7.89h-11.09v7.89h-1.29V10.68h1.29v7.69h11.09v-7.69h1.29V27.33h-1.29Z" style="fill: #595757;"/>
          <path d="M81.42,27.33V10.68h9.11v1.07h-7.81v6.67h7.59v1.05l-7.59,.02v6.76h7.99v1.07h-9.28Z" style="fill: #595757;"/>
          <path d="M95.12,27.33V10.68h9.11v1.07h-7.81v6.67h7.6v1.05l-7.6,.02v6.76h7.99v1.07h-9.28Z" style="fill: #595757;"/>
          <path d="M119.91,27.33l-2.93-4.57c-.29-.47-.58-.91-.87-1.32-.29-.41-.57-.77-.87-1.1-.59-.67-1.45-1-2.59-1h-2.54v7.99h-1.29V10.68h4.2c1.77,0,3.15,.37,4.13,1.1,.98,.77,1.47,1.85,1.47,3.25,0,1.07-.32,1.94-.95,2.59-.65,.68-1.38,1.16-2.2,1.42,.44,.28,.91,.76,1.42,1.44,.26,.36,.5,.71,.73,1.05,.23,.34,.46,.68,.68,1.03l3.13,4.79h-1.51Zm-3.81-14.73c-.77-.57-1.8-.85-3.1-.85h-2.88v6.52h2.76c1.38,0,2.45-.28,3.2-.83,.77-.57,1.15-1.38,1.15-2.44s-.37-1.84-1.12-2.39Z" style="fill: #595757;"/>
          <path d="M126.41,27.33V10.68h1.27V27.33h-1.27Z" style="fill: #595757;"/>
          <path d="M147.24,27.33l-12.65-14.55v14.55h-1.29V10.68h1.1c1.06,1.27,2.11,2.51,3.15,3.71,1.04,1.2,2.1,2.4,3.17,3.59,1.07,1.19,2.13,2.39,3.17,3.59,1.04,1.2,2.09,2.44,3.15,3.71V10.68h1.29V27.33h-1.1Z" style="fill: #595757;"/>
          <path d="M165.94,27.14c-1.06,.28-2.13,.42-3.22,.42-2.62,0-4.78-.81-6.47-2.44-1.73-1.63-2.59-3.68-2.59-6.15s.84-4.44,2.52-6.06c1.68-1.63,3.78-2.44,6.3-2.44,1.27,0,2.44,.17,3.52,.51,1.09,.34,1.86,.64,2.32,.9v1.47c-.91-.54-1.85-.94-2.81-1.22-.98-.31-1.99-.46-3.03-.46-2.1,0-3.87,.69-5.3,2.08-1.42,1.4-2.12,3.15-2.12,5.25,0,2.23,.72,4.01,2.15,5.35,1.45,1.35,3.35,2.03,5.69,2.03,.94,0,1.81-.11,2.59-.32,.81-.23,1.43-.46,1.86-.71v-4.49h-3.52v-1.07h4.79v6.37c-.77,.39-1.65,.72-2.66,1Z" style="fill: #595757;"/>
        </g>
        <g>
          <polygon points="183.77 11.24 183.8 11.21 183.66 10.66 175.95 10.66 175.95 11.71 181.92 11.71 175.64 19.34 175.62 19.37 175.78 19.86 183.82 19.86 183.82 18.82 177.5 18.82 183.77 11.24" style="fill: #595757;"/>
          <path d="M192.62,10.66v5.12c0,.48-.07,.92-.19,1.28-.13,.37-.32,.7-.55,.98-.48,.55-1.15,.83-1.98,.83s-1.52-.27-2.01-.81c-.49-.54-.73-1.28-.73-2.22v-5.19h-1.15v5.24c0,1.2,.36,2.19,1.08,2.94,.73,.75,1.67,1.13,2.8,1.13s2.09-.4,2.8-1.19c.72-.77,1.08-1.76,1.08-2.95v-5.17h-1.15Z" style="fill: #595757;"/>
        </g>
      </g>
    </g>
  </g>
</svg>